<?xml version='1.0' encoding='utf-8'?>
<svg xmlns="http://www.w3.org/2000/svg" enable-background="new 0 0 5000 2778.1755" version="1.1" viewBox="0 0 5e3 2778.2"> <path d="m2463.1 127.27c11.012 2.1122 83.594 2.3939 89.862-2.1878 6.3066-4.6079 12.026-13.302 12.872-21.138l0.1462-3.5213c-4.3176-3.6521-8.6292-3.4137-14.087-3.7837 0.719-9.7366 0.2151-15.051-6.425-22.705-6.447-7.4298-19.774-16.335-24.344-24.384-1.1821-2.0805-1.0085-12.327-1.4795-15.651-1.8733-13.204-9.0847-17.389-14.368-33.903h-1.7385c-3.3889 9.1598-11.442 19.704-13.748 28.168-1.2258 4.4956 0.146 14.732 0.8347 19.595-17.773 12.723-32.133 25.67-36.668 46.97l-9.1472 2.0184c-2.2014 6.8142 0.675 13.266 4.2515 19.525 3.0387 5.3214 7.9127 9.8215 14.04 10.997zm21.388-57.562c4.0251-7.0358 9.8523-10.041 17.368-12.151 9.7439 0.6301 18.126 7.1115 20.33 22.831 1.2673 9.0508-1.229 14.228-6.4666 21.259-10.855 0.9916-22.421 2.7751-32.059-0.3164-1.0994-1.7545-1.9673-3.4365-2.6753-5.3979-2.3391-6.4663 0.1101-20.294 3.502-26.225z"/> <path d="m2458.6 131.04c-2.7388 6.1403-3.3171 7.1141-2.2314 13.667 9.6409 8.1644 73.885 0.7475 90.589 1.0051 3.5459-5.8619 3.7773-5.8149 2.4492-12.491-28.654-5.7378-61.418 0.2059-90.807-2.1812z"/> <path d="m2545.4 194.73c0.446 0.013 0.8984 0.024 1.3457 0.0365-0.3398-0.2912-0.6819-0.5841-1.0142-0.868l-0.3315 0.8315z"/> <path d="m2413.8 219.99c13.897 8.1137 55.657 3.7477 72.984 3.7114l66.876-0.1999c19.1-0.1109 35.899 2.6735 44.612-5.8064 3.5679-3.4735 5.9897-8.7866 8.2766-13.169l-0.7908-5.2496c-19.129-3.7569-39.518-3.9673-59.02-4.5116 0.3374 0.2892 0.6616 0.5658 1.0071 0.862l-108.13 0.6684c-10.277 0.1261-29.252-2.0074-37.481 3.3319 1.5511 6.5279 5.4388 16.73 11.662 20.363z"/> <path d="m2576.6 189.22 4.3804-40.336-155.4 0.6129c0.1406 10.944-2.0662 28.851 4.5103 37.885 9.5825 4.2475 20.923 3.2409 31.227 3.2314 14.431-13.537 27.127-14.477 46.524-13.733 18.08 0.6929 25.442 6.3694 37.901 17.019l1.269-3.1843c9.8827-1.4625 19.622-1.4645 29.593-1.4945z"/> <path d="m209.17 2019.4 2.5514 0.012c-0.3781-0.476-0.7611-0.9392-1.1508-1.3855-0.4714 0.4531-0.9524 0.8958-1.4006 1.3735z"/> <path d="m3106.2 2573.8c68.378-0.9924-16.973-0.6458 515.43-1.3943l0.1099-62.123-547.53-0.8708-9.0374-19.132 510.97-1.8159c-0.0276-14.043 4.1328-62.156-3.251-70.957l-10.938 0.5813c-2.0747 4.9492-2.2466 5.7207-7.4111 9.168l-546.49 0.8596 101.53 200.59c13.5 26.377 34.109 57.383 42.512 85.217-5.428 3.2185-9.4504 2.0393-15.539 1.6726-7.9553-10.97-5.3347-8.28-54.056-105.22-91.074-182.34-89.78-177.31-99.654-202.54l1462.2 0.8352c5.8809 7.5359 3.1221 23.748 0.2764 32.144 3.9673 3.4502 6.3086 4.635 11.489 5.6433 4.0771 10.587 4.4077 21.116 5.0415 32.288l308.36-2.0586 2.4517 2.3752c-15.346 5.5994-45.598 1.7747-62.487 1.791l-185.5-0.0137c-15.704-0.0083-42.43-3.5435-56.839-0.011-0.6333 0.1572-3.4438 3.4114-4.1323 4.0757l3.5269 7.0293c6.437 0.3335 10.656 0.1455 14.575 2.6428 4.1602 2.6587-19.127 1.5823 345.28 2.5737l3.7466-2.4497-0.7983-6.0928c-11.875-3.7063-37.084 3.3479-44.248-4.9297l0.4131-15.919c-6.5293-4.4944-15.318-1.8049-17.219-9.7988l-3.6646-37.733-182.01 0.259c-37.415 0.0691-79.101-3.6292-115.66 4.2546-2.7568-17.893-1.623-24.883-16.338-35.366l-0.3311-305.09 43.118 0.0112-0.5508 30.945 12.26 4.9822c2.6616 22.071 1.4331 1.7358-0.8818 266.7-2.7549 2.1467-2.9756 3.0811-6.5566 3.2241-10.49 0.4124-18.282 2.4524-22.51 12.207 11.407 3.7891 28.379 1.7195 40.529 1.7031l96.871 0.405c-11.599-6.291-22.62-12.392-35.459-15.867l-0.3306-268.66 11.572-5.6213c2.1489-10.24 1.2676-21.535 1.2124-31.987l55.296 0.2036 1.019 27.609c4.1885 3.5769 8.0454 5.3184 13.143 7.3464 3.1514 20.492 1.6382 12.808 1.2397 208.14-0.0552 13.572 3.8291 53.365-3.334 63.225-8.6035 1.8398-13.091 3.531-21.793 10.73l-1.1851 2.8162c14.017 1.7605 14.514 1.2007 118.44 0.4187l-0.4688-3.6401c-6.8047-4.9736-12.729-8.6331-20.664-11.59l-0.6611-196.71c-0.1377-16.283-5.9233-58.245 1.626-70.938l8.1553-2.4497 1.1294-33.357 26.449-1.7688c2.8652-9.0745 5.6753-24.426 11.049-31.962 2.8926-4.0674 8.7061-6.699 12.48-10.02 3.9404-3.4528 4.8496-8.964 8.4585-12.654 12.536-12.877 23.447-14.076 27.249-33.932-4.7666-6.3601-11.875-10.32-19.7-11.634l-19.589-0.9451c-2.5625-3.891-3.7739-7.4651-5.1245-11.915-9.9189-7.7725-17.551-5.2087-36.699-1.6836l0.3857-53.013c0.0557-5.5194-1.3223-16.222 0.1655-21.237 2.3418-7.9141 6.5571-8.0327 6.998-18.372-2.0664-1.9978-4.7388-5.4091-7.1079-6.8615-8.5693-5.2411-46.37-1.6974-57.886-1.6201-9.7256 14.414-14.795 30.383-21.6 46.225l-93.373-0.1542c-1.9556-6.134 1.2949-8.4213-1.7632-15.545l-6.0342-2.4469c2.7275-16.096 19.562-28.846 17.606-45.065l-4.9038-6.5557c-9.7534-0.5374-20.912-0.1626-30.334-2.7418-40.887-11.179-78.688-42.006-121.48-43.299 0.8848-6.9771 0.1328-9.3888-0.5786-17.462-6.8052-4.8997-17.357-3.6266-25.789-3.96-0.0273-16.217-4.7661-56.465 2.5352-69.113 8.1548-4.0177 9.7808-6.6135 14.74-13.883-1.3779-7.7679-2.5625-8.7188-8.0454-14.555-11.654-1.4606-57.197-4.5936-66.096 2.1686-9.356 7.0857-10.574 19.702-11.792 31.254-8.0728 3.6733-13.886 3.3373-22.51 2.7446-1.9565-5.1365-4.436-10.353-4.8765-15.88l7.7969-6.3214c-1.1294-5.853-2.0112-5.6793-6.585-9.1404l-78.081-0.3389c-4.9038-0.0276-19.423 1.3916-23.143-0.3113-5.042-2.3148-9.2573-9.9204-14.299-12.083-0.7607-0.3258 18.415 0.2015-394.98-2.6399 4.907-4.0532 390.09-0.8308 391.76-1.7334 0.9092-0.4987 2.9482-3.9901 3.6919-5.0042l-0.1099-12.249c-12.206-9.5013-26.202-2.0143-38.82-8.2476-0.854-8.5698-0.3311-24.354-4.2153-31.681l-29.095 0.5621c-7.7417-7.8423-0.4678-16.903-3.8018-25.542-2.6177-6.8256-17.44-1.7996-21.408-4.4392-2.4707-1.6487-1.8721-39.44-2.2314-89.866 3.3059-3.6234 5.8411-5.2355 10.304-7.1947l9.7808-14.751c5.6753-0.7743 10.993-1.2399 16.2-3.7723 0.4961-3.0753 0.0547-5.4589 2.7002-7.3988 4.9863-3.6373 16.806-3.1909 22.73-3.1663 3.3613-6.7017 2.0386-15.156 1.8179-22.502-8.5684-5.8612-42.401-0.2286-44.385-7.1039l0.937-4.1997c-6.2539-3.9075-11.241-4.646-18.35-5.4009-2.7551-7.644 5.3999-8.3799-1.2397-14.847l-254.63-1.5404 233.06-0.5262c0.7163-22.359 2.8657-46.173-0.1377-68.414-5.1802-0.7073-8.8018-1.5796-14.63-4.5192-1.9285-4.2766-2.397-7.8975-2.8376-12.544-4.353-0.675-8.1277-1.4136-12.233-3.0918-6.9707-41.287-14.382-82.012-51.411-107.68-7.2185-4.9988-15.897-8.0133-24.493-9.5757-1.4878-4.3512-1.0469-8.3441-0.7715-12.844l-5.3171-8.5754c6.1438-7.2335 7.2737-8.4349 7.9624-18.369-5.1521-7.7461-8.1555-8.0879-16.559-11.607-5.2622 0.7192-4.6841 2.4165-8.5684 3.9846-3.5544 1.4329-17.743-0.7578-22.317-0.9507 5.7034-1.9236 11.489-0.7083 17.247-1.9703 11.297-2.4828 14.327-15.817 22.372-23.75-1.2673-7.1978-1.1296-8.1621-7.301-12.48-4.1602-2.91-9.175-4.3483-13.941-5.8887l-0.4683-2.8025 5.0696-3.1029c-0.303-2.5488-0.7166-4.0093-1.7634-6.3846-5.8684-13.246-7.0808-35.93-11.103-50.888-5.2075 21.397-8.4307 45.548-15.953 66.11l-18.514 10.885c9.092 8.3796 15.87 15.778 21.876 26.597-7.8525 4.8525-19.121-0.8955-25.182 11.022 0.468 2.7611 0.9368 11.477 2.2314 13.401 1.2676 1.8682 6.4473 4.3867 7.1086 6.1945 0.5508 1.5514-7.4944 10.926-5.5657 18.063l3.3613 1.6312c-31.657 13.935-53.367 34.126-65.986 66.862-2.948 7.6412-12.15 51.651-15.456 52.96-7.6597 3.0228-11.6-1.6423-15.732 7.4512-0.854 1.8876-1.6809 6.2029-2.8381 7.644-1.1018 1.3309-5.0142 2.0364-5.8958 3.3785-2.1216 3.1908-2.1765 8.6855-4.2708 11.91-0.6609 0.9893-4.9319 1.9646-5.3721 2.8989-2.7449 5.7427-0.9575 45.08 3.5537 55.071l-18.432 1.8986-4.1326 5.379 8.5684 7.3464-1.3225 2.9596-17.826 1.5072c-2.4795 3.9763-3.4717 6.3711-4.2156 11-12.812 4.2767-39.646-3.37-47.692 5.3541l-0.2205 20.822c8.4031 7.8975 19.755 1.0581 29.535 4.1996 2.3694 0.7577 7.7969 7.1947 9.8081 9.3221l11.075 1.1738c1.5986 3.9269 2.1218 7.002 2.3975 11.226 3.8296 1.9619 7.301 3.089 11.461 4.1251 3.2917 6.9976 2.2371 6.2103 2.0112 92.423-6.2812 4.4835-10.221 1.0031-15.924 3.4115-5.1248 2.1576-6.4197 13.332-7.3564 18.088-9.4778 2.4331-23.116-3.3179-30.554 1.7689 0.165 5.5334 0.6611 6.6632-2.5076 11.419l-72.571 0.5511-3.5544-37.688c-3.196-2.3202-6.199-4.5413-8.9819-7.3492 0.9646-7.0929 2.4524-9.6473-1.7908-15.737-9.1194-0.8927-15.098 0.0387-22.234-5.9136l-1.0469-13.863c-8.1829-5.4507-36.974-2.4058-47.637-2.2816l4.2983-28.339c-7.2463-6.5115-17.192 1.5901-18.019-11.312l-0.6611-23.756-13.583-10.245c-2.1213-29.595-0.4128-60.171-0.1653-89.871 0.0276-5.1503-1.4602-18.636 0.1653-22.434 2.5625-5.9052 8.0452-10.717 10.718-17.278l13.583-3.9103c1.7361-6.4095-0.0276-11.262-1.6804-17.46l24.879-1.9867 1.157-43.015c3.0308-2.2871 5.0144-3.0752 8.5959-4.0342l7.3286-8.5369 44.083-0.0469c4.408-5.9135 3.0308-8.8759 2.4521-15.982-1.8184-1.411-2.7275-2.7308-5.0422-2.877-14.103-0.8837-61.122-30.163-91.746-35.106-4.354-0.7026-8.9258-1.1592-13.632-1.4487 2.0366-0.2504 4.0542-0.527 6.0276-0.8632 3.1406-6.71 3.5818-14.37 1.5703-21.753-0.7439-2.6399-1.9287-4.0039-3.6091-6.1036l-0.0552-14.698c-4.05-3.5962-6.4194-2.5159-11.71-2.4471 4.4275-9.3802-1.3433-32.315-2.3694-46.539l-3.0857-3.8662-20.802-0.4463c-9.0093 10.65 2.5625 29.441-8.5686 36.829l-12.178-0.6752c-4.9316-8.0023-2.259-26.476-2.0935-36.049l-91.967-0.2205 0.0276 37.396-55.82-0.0939v-37.468l-85.244 0.1434-0.248 33.842c-5.0969 3.9818-5.2349 3.5989-11.765 3.0339-5.6758-9.2395-1.1296-27.258-2.3967-38.295 159.97-0.6406 111.07-0.1626 216.33-1.9508 37.665 0.291 76.453 5.3265 82.517-0.5925 6.0889-5.908 13.39-6.7484 20.719-10.345l38.82-20.967-46.425-9.2644c-0.6003-4.4744-1.1409-7.8792-3.0029-12.248-24.907-10.854-68.245-4.4036-95.631-4.3044l-193.25 0.3721c-11.324 0.0468-47.141 3.337-53.864-2.0916 9.0369-6.4729 275.96-2.403 312.43-2.3807l-0.854-33.516c-4.353-2.2513-7.6045-2.7941-12.453-3.2076-2.2866-11.747 2.8379-24.489-0.8264-35.702-3.7195-0.6724-9.5054-0.6724-11.572-3.822-7.2444-10.97-3.8665-35.252-26.697-73.351-25.292-42.192-42.197-28.442-44.138-53.269-7.5217-3.6483-17.385-0.4739-23.281-3.2928-5.7859-2.7777-15.346-18.143-18.901-24.252 3.4717-7.3355 7.3289-12.218 12.784-18.082 2.2595-7.5807 3.8848-14.492-0.2756-21.932-4.0222-7.2225-18.597-9.0191-18.542-12.808 0.0278-3.0174-0.5232-5.1337-1.4878-7.9637l9.5608-9.0247c-2.3301-11.621-2.8047-12.849-14.079-19.901l0.6614-2.0967c1.2397-4.737-2.5901-11.251-3.7197-15.966l-8.4309-39.565c-5.2898 18.441-13.39 41.078-14.106 60.094-7.5776 3.966-11.045 5.9351-14.409 13.762 2.342 7.5173 7.9624 8.231 12.646 13.472 1.2397 1.3889 1.9285 5.6656 3.2239 7.6523-6.2268 2.8714-11.186 3.384-17.908 3.7944-5.3179 5.6985-10.084 10.761-9.7261 19.171 0.1379 3.8992 1.5979 10.672 4.3806 13.232 5.4827 5.0538 9.3403 9.7907 13.252 16.162-8.9692 15.503-11.214 13.33-12.04 22.643-10.002 5.4147-19.121 2.4387-29.37 5.6434-0.7166 4.3154-0.9365 6.4318 0.4961 10.711-53.22 48.3-49.839 93.028-57.721 113.41-2.4243 6.3517-24.961-0.8928-26.532 10.477-1.0745 7.6193 1.5156 16.666-1.1846 24.037-1.6533 4.4943-5.2351 7.3712-6.6953 12.003-2.3694 7.5615-18.542 18.829-24.163 27.187-5.8135-13.885-21.683-52.139-16.283-65.845 0.937-2.3148 2.3696-4.0233 3.9126-5.9548-1.6804-5.47-8.4028-8.5728-7.8247-12.309 8.3484-5.0895 15.098-7.418 24.658-9.2147l11.71-13.365c-10.249-5.2633-23.033-13.739-34.246-16.005-4.7666-0.9589-11.241 0.4988-15.484-0.6585-11.021-3.0064-36.451-46.967-49.07-55.713-6.3643-4.4172-15.732-6.6877-23.06-9.0824-2.2043-8.3054-2.5073-15.966-2.6448-24.495 6.6125-6.9524 13.252-2.6729 19.589-9.799l-3.3613-7.3491c11.341-1.9736 28.409-5.123 34.935-14.696-3.499-6.9276-7.6316-10.03-15.071-12.466-16.173-5.277-20.939 6.4425-33.585 6.7347-5.1792 0.1184-24.879-4.2767-27.662-7.7405 8.9543-5.2687 12.729-0.7633 21.242-9.3278-0.0276-12.431-14.768-25.773-22.813-35.379-3.7195 0.6616-6.447 1.5763-9.9185 3.147-4.2703-3.2904-12.233-8.0189-13.114-13.552-1.3225-8.0654-1.0471-12.946-4.2429-20.818 5.5928-6.856 13.968-7.9969 17.991-15.922l-2.2866-7.9059 23.86-15.012c-20.25-6.4012-46.617-11.166-64.884-21.174-6.2542-3.4112-11.213-14.577-16.503-16.15-16.448-4.8638-22.923-21.783-30.61-36.057-11.241-20.832-9.9185-52.878-13.693-76.372-11.765-73.153-71.937-132.56-141.73-153.79l-24.11-5.7924c-2.6833-0.4575-12.916-1.6452-14.131-3.442-2.5073-3.7089-4.155-10.223-6.6814-13.139-3.1189-3.5961-12.952-6.2936-15.181-10.303-2.0415-3.6759 0.1211-12.058-1.5896-16.184-3.3806-8.1647-15.848-13.015-23.772-14.682-5.7166-1.2027-12.844-1.9186-20.37-2.0209 24.242-0.5558-5.0457 0.3695 19.287-0.4425 4.0886-6.1451 6.0613-8.701 4.196-16.414-2.5154-10.418-11.982-15.254-17.917-23.443-3.8289-5.2875-6.8228-15.078-8.8135-21.723-3.2209 7.6282-6.3728 15.855-10.638 22.948-8.114 13.486-18.325 16.485-12.406 34.292 5.1677 3.9523 12.614 4.7733 20.134 4.8423-15.268 0.492-42.053 4.2379-44.564 19.393-0.7053 4.263-1.5815 8.3659-0.9946 12.706l-20.077 16.944c-5.4111-2.4772-9.4197-3.9513-11.753-9.9833-7.2378-18.7-7.4915-30.841-24.485-44.652-91.671-1.1458-88.9-1.6694-96.701 0.2892-28.752 7.2177-20.007 51.347-47.755 61.635-5.8997-8.2636-13.831-16.11-27.75-24.434-0.7913-8.6173-1.6387-13.553-6.5298-21.877-5.7195-4.1169-9.7283-6.47-16.66-8.0186-2.645-7.5641 4.1331-13.056 1.9702-20.758-3.3367-11.882-14.462-20.06-18.743-32.626-0.981-2.8814-1.8652-7.7725-4.083-9.7977l-6.0422 14.69c-7.8467 19-22.218 18.792-17.649 42.567 5.5293 4.0008 7.7666 3.7917 14.69 4.3923-31.076 2.7924-38.019 10.951-44.072 34.759l-12.29 5.9852c-10.258 4.8913-14.602 14.872-23.973 20.064-36.005 19.946-111.28 17.047-162.99 171.29-10.728 32.001-14.161 67.176-19.609 100.42-24.176 5.2493-52.158 8.997-74.948 18.59l-3.0911 4.8688c3.6587 16.109 16.963 19.165 24.251 31.703 3.229 5.5582 5.1246 24.401 4.6067 30.758-5.0227 1.5651-9.2079 0.7274-14.338 0-5.3146 6.3544-6.5626 17.316-9.4832 25.197-1.5017 4.059-9.8497 31.086-11.665 32.491-2.6615 2.0585-17.143 3.6263-21.085 4.4888l-64.636 15.261c10.866 8.0215 21.028 15.208 29.659 25.685 0.8899 1.0803 6.7748 9.1927 7.5408 9.4077 9.4723 2.6509 20.507-7.002 30.712-1.083l-0.5784 12.249c-4.8107 2.6205-10.946 3.8771-15.415 6.5942-9.6815 5.8859-8.2654 33.704-15.192 39.276-3.7773 3.0367-21.072 1.3945-26.53 2.155-22.248 3.1054-49.504 21.199-57.384 42.602 0.4052 6.2001 2.4937 13.263 7.5961 17.275 4.0116 3.158 10.214 4.6625 15.06 6.1339 1.7301 7.5201-1.0195 14.343-1.3885 21.907l-0.3832 42.166-42.3 8.0325c-3.2125-5.7977-5.9484-10.681-11.018-15.136l-11.927-2.5573 0.9092-3.7613 12.561-6.3655c2.0168-7.1839 1.722-11.367-0.3196-18.515l-8.4308-8.7629c0.8092-16.404-12.535-35.368-18.837-51.028-14.428-8.9222-24.027-48.611-30.108-52.285-4.2678-2.5737-17.206 0.543-23.422-2.0363l2.1848-3.6485c-3.5092-10.828-14.225-17.017-23.791-21.54-2.5166-4.3254-4.7151-7.616-8.6621-11.527l1.6531-4.8995c-13.597-9.1103-7.3564-14.555-11.351-22.745 6.3506-5.1392 13.109-8.0712 14.343-16.531 0.5179-3.5353-0.3445-6.6244-1.3086-9.9918-5.0668-4.0452-9.723-5.4478-15.936-7.0709l-8.3757-9.7961c3.5049-4.314 6.2592-8.0294 11.448-17.145-2.441-8.2559-3.2511-4.3896-7.9487-9.5454-3.0223-3.3152 1.7909-6.8172 1.9617-10.053 0.2205-4.1802-5.6315-10.694-8.3839-13.469-1.4025-12.615-0.6006-27.978-10.718-36.415-11.635 11.673-4.1409 26.851-11.018 38.303-3.7002 6.1644-5.7695 3.373-8.1415 12.808l2.6394 8.5729-6.7391 2.8519c-2.2026 7.5186-2.6366 5.3657 9.9846 24.588-3.0167 3.8249-6.7445 7.804-8.7614 12.229l-14.691 1.039c-5.6399 6.999-4.6066 9.4296-4.3861 18.077 4.6368 4.9628 8.5685 9.0411 14.696 12.249l-4.1877 17.349-5.6151 2.2458-1.7301 5.3624 2.4465 4.4725c-3.3691 2.0778-5.3322 3.5452-7.9928 6.9909-3.8132 4.9407-9.0341 6.6382-13.473 10.675-5.6095 5.1006-10.423 12.138-15.261 18.016l-24.884 0.3885c-5.2847 10.336-12.751 19.041-17.961 28.802-3.1107 5.8281-3.2678 11.29-7.3234 17.005-8.001 11.279-4.7472 21.086-17.234 30.758-4.4965 10.414 0.2893 20.204-2.4906 29.394-0.347 1.1407-3.9316 4.5302-4.8188 5.5884-7.0449 8.3935-8.4969 12.103-6.0862 22.816l11.398 8.3357c-8.6953 5.7675-14.346 2.6922-22.394 11.022-1.0552 7.688-1.631 14.668-1.2426 22.453-12.004 4.85-50.304 15.685-56.136 25.313 5.9567 11.405 8.2797 9.2042 84.649 9.121 303.72-0.4583 286.59-1.6917 289 1.9014l-2.2812 3.6732c-8.9174-6.9574 5.3591-4.3114-70.482-4.238l-295.8 2.3726c6.0752 4.0809 17.807 10.256 21.904 16.027 6.1055 8.6057 8.7394 30.717 22.088 28.314 18.738-3.3669 22.235-9.4951 25.733-21.654l-1.5374-6.4729 9.7917-0.8459 2.7277 2.4194c-2.0581 9.7162 3.9261 14.742 2.171 24.492-16.536 8.0491-37.985 0.2148-53.968 8.5754l-1.6172 4.8994c6.2102 6.6797 12.638 5.2302 21.498 5.5526 306.74 0.762 287.3-1.2118 295.21 4.2437-34.517 4.5466-72.554 1.4246-107.43 1.4219l-208.54-0.1323-0.0248 39.692c342.88 3.1194 309.43 2.3259 314.4 3.2543-9.4346 0.0159-326.97 0.2256-331.15 1.1132-17.057 3.6237-37.679 17.443-53.48 25.42-25.237 12.745-55.891 23.803-78.128 41.23l-1.1902 4.3484c12.971 9.5123 48.312 5.4396 65.011 5.3734 6.8824-0.0276 12.825-1.6646 18.033 3.1992 0.793 14.692 8.8595 24.935 22.118 31.844-0.8405 3.6263-2.6504 5.7452-4.9042 8.5725 1.2452 6.5088 1.6807 8.5535 7.5024 12.654 6.5021 4.577 15.652 4.9709 23.195 3.9211 3.345 4.7671 0.1682 8.6609 2.0361 12.147 1.1627 2.166 7.304 3.7092 8.3646 5.5719 2.8296 4.9657 0.0469 127.55-0.0138 144.1-12.236 5.9713-22.526 4.3207-30.218 16.332l-0.6696 9.7963 4.3834 4.6763-13.977-0.3115c-3.2812 5.7979-2.9398 6.6824-2.2014 13.398 6.921 8.3081 16.691 10.813 26.565 14.315-17.002 0.1377-52.23-3.6898-64.283 8.5341-5.7556 5.8364-9.6678 24.638-13.23 27.347-3.006 2.2817-16.44 1.6232-21.788 4.6544-17.944 10.171-31.607 28.675-50.152 37.28l-34.891 0.0165c-14.471-17.113-13.116-15.637-33.073-22.26-3.1711-11.191-5.524-23.541-12.988-32.726l-10.315-4.7094c3.0554-19.226 4.8326-38.069 4.67-57.562 5.108-3.2599 10.299-3.7917 15.302-6.3986 8.067-4.2078 5.1135-13.91 9.7946-19.355 8.6401-10.052 29.546-8.6636 37.765-22.012-7.0569-22.02-45.745-25.362-54.602-32.742-2.2924-1.9097-5.9512-15.018-7.844-18.744-5.4963-10.835 6.6768-23.13-15.242-42.817 5.0917-8.7628 5.6564-11.907 5.4746-22.045-6.5133-10.648-14.302-32.329-26.615-35.768l-5.5406-0.9727c-2.9124-17.04-8.4711-39.071-17.895-53.55-3.4357-5.2771-8.5714-8.9309-12.216-13.91-3.9316-5.3762-4.2043-10.232-10.133-14.365-7.5492-5.2632-18.41 0.4463-25.367-2.9211-6.8851-3.3314-4.8271-21.681-13.467-27.953 3.6064-4.4448 6.2487-5.7399 5.6343-11.642-0.5564-5.3458-2.171-7.9004-5.6343-11.838l-11.136-3.439c0.1488-4.5715-0.8651-18.386 0.7164-22.045 4.623-10.694 11.591-8.1401 3.0747-22.624-4.6039-0.8047-16.735-1.5459-19.586-4.3512 7.6373-1.4604 7.8495-1.0582 12.329-7.316-2.0719-11.282-5.6564-37.97-14.779-45.228-5.2402 1.8407-5.1852 1.7443-7.4609 6.7017-4.334 9.4435-12.409 35.054-9.6788 44.748l1.226 1.5928-11.018 2.4113c-3.8076 6.3295-3.5514 9.5178-3.7883 16.716 12.018 12.577 11.569 11.436 12.693 29.394-9.4116 5.74-11.222-1.9813-19.6 8.5728 0.0055 9.3773-0.54 12.524 4.2429 20.821-9.8232 4.7893-15.284 11.64-15.583 22.61 4.2815 2.5187 7.1827 4.4283 12.241 4.4119l-36.178-1.3558c-7.3066 8.7683-13.109 20.182-20.617 28.22-5.1356 5.5002-10.246 6.0569-14.018 13.524-3.4219 6.7788-6.7198 14.627-8.5162 21.993-1.6476 6.765-0.5841 16.002-5.7362 21.02-6.392 0.0717-10.99-0.8074-15.864 4.125-7.8192 7.917-11.343 33.255-16.594 44.795l6.4717 7.2169c-2.2349 7.7867-3.2972 23.229-6.042 24.916-5.4221 3.3342-9.0093 5.5442-11.313 11.827 1.1874 4.2271 2.4163 8.2173 4.1741 12.246-10.949 5.481-23.76 10.157-30.017 21.26-11.679 3.8164-25.301 6.8477-34.671 15.081-2.7938 5.9742-3.6589 7.3796-2.9892 13.842 15.498 10.929 36.486 10.761 52.114 20.852l1.3032 15.922c5.1163 3.5713 10.136 3.3453 16.14 3.6732 6.9511 8.6361 3.0801 50.508 3.116 63.685-4.5322 3.8551-9.7781 3.4363-15.426 3.72-3.9205 3.2227-9.6913 5.7561-4.9895 20.774-6.2183 0.8264-9.5004 1.6287-14.597 5.5746-3.3401 11.102-1.2341 17.599 4.353 27.493l-1.9065 4.9244c-13.442 5.2411-41.311 0.292-48.279 13.447 0.5125 9.65 8.0148 18.548 13.233 26.36-11.214 3.2214-22.716 7.0104-34.316 8.4296-23.944 2.932-26.328-4.0928-58.643 18.46-4.2859 2.9938-2.5558 1.9532-75.271 2.8411-29.262 0.4299-32.934-1.3618-44.016 18.429l-10.492 1.4109c-7.2968 9.9025-1.3806 56.237-2.8047 58.526-2.5541 4.0977-18.622 12.417-23.43 15.622-10.68-2.9017-8.4711-0.0736-8.384-79.734 10.365-0.1735 39.776 2.1686 46.154-4.2104-0.518-9.9808 1.1902-17.713-5.9402-25.153-15.911-1.0085-53.665-5.1364-66.107 3.348-4.5013 7.2837-5.7308 14.38 0.3113 26.39l7.1579 2.7612c4.973 20.686 1.3748 49.334 1.2811 70.951-102.13 54.194-100.44 53.853-110.82 56.989-16.227 4.9019-46.008-5.5707-57.148 20.251 6.4817 30.362 18.166 24.462 33.125 24.869l15.77-18.002 649.45-0.1902c4.8656 7.1068 9.519 14.373 15.517 20.596l-439.86-0.1267c-73.75-0.047-150.03-4.0784-223.55 0.5015-8.4114 0.5236-17.638 2.0116-24.642 6.9661-5.1521 9.2893 1.1847 19.201-6.1494 26.619l-96.331 0.5538c-0.0854-9.0853 2.4796-28.129-4.0556-34.624-7.1095-5.245-7.8883-5.3785-12.936-16.14-10.222-8.5093-32.75-6.7291-45.591-5.4918-4.6546 0.4491-8.5523 2.2706-12.478 4.7148-4.2608 5.7482-7.4538 8.512-6.0763 16.382 0.8177 4.6707 4.702 9.8292 7.2362 13.789l0.189 61.66c-18.162 8.2311-56.895 20.287-68.694 35.093 0.5138 7.7075 3.0739 12.07 7.0651 18.369 9.7962 5.6229 11.783 6.3408 15.6 10.713 5.6281-5.4094 12.806-9.1676 19.456-13.159 25.14-2.8411 318.46-3.5742 328.83 1.0498 0.7797 6.4591 1.1957 8.399-1.2233 14.326-13.119 1.0863 28.191 0.9371-345.91-0.8313 10.583 13.325 16.792 37.847 27.595 48.716 10.344 10.405 4.448 24.731 24.044 25.674l9.0279 0.2949c5.345 8.5725 2.0057 29.893 1.7825 40.791-3.8585 159.39-3.8909 99.993-0.6089 259.44l-2.397 3.665-14.357 1.2344-2.1854 3.6733c11.403 7.5227 57.352 2.7363 72.535 2.7087l202.69-0.27c6.7006 0.0056 16.481-1.6699 19.377 4.5635 4.6349 10.005-0.2053 7.0916 22.862 6.9854 1.9183-3.7905 2.5614-5.2693 6.3561-9.708l1415.6-0.4905c-3.4741 6.0815-9.1912 19.515-14.817 23.045-56.197 0.0168-543.16-2.9316-550.5 1.5461l0.0028 57.79 524.33-0.2893-11.404 24.462-562.88 0.0247-0.1075 56.484 530.3 0.4519-12.241 23.709-569.1 0.0691-0.2314 108.53c-0.3168 9.4077-3.7112 17.788-3.7828 26.939-0.0496 6.3655-1.4354 12.141 2.7799 17.057 545.51 0.3645 502.14-0.8997 506.26 2.9817-0.1267 6.5913-0.686 7.2251 4.0281 12.213 5.8986 6.2 14.586 11.463 21.573 16.478l1298.3-0.3857 2.1218-2.5903c-2.645-4.8499-5.5103-9.4241-6.5298-14.908l14.354-18.394 510.26-0.4907 0.551-147.26-560.62 0.2949-10.607-20.597zm248.79-1555c-22.372 0.1929-46.121 1.9482-68.107-2.4608 15.126-5.5222 30.086-8.5975 45.873-11.549 23.584-1.8794 41.933 3.6373 63.699 11.824-13.555 2.8218-27.662 2.1687-41.465 2.1853zm111.25-1.1133c-9.3064 1.7751-32.285 3.6164-39.536-2.4498l2.7275-7.3464c11.512-2.1494 29.007-2.5469 37.25 5.8666l-0.4409 3.9296zm-30.196-70.827-11.269 1.0911c-11.608-8.6118 6.2712-37.458-31.933-112.52 13.44 5.8555 47.323 80.77 43.201 111.43zm-96.789-55.316c-0.6614-3.9708 0.6611-7.2775 1.7908-11.022l3.7192-0.7468 3.9675 3.1937-1.405 6.6439c3.541 4.1859 6.9731 6.3769 11.572 9.278l-0.7439 7.0654-8.0725 3.3177c-10.69 0.1627-12.619-0.1184-21.049-6.7072l-0.3584-4.8993c9.8373-5.8777 7.6832-4.6561 10.58-6.123zm-11.186-98.455 2.5068-3.1966c9.6707-1.7386 15.181-1.3447 23.832 3.0505l-1.8735 3.1028-24.466-2.9567zm-9.8084-34.393c10.098-1.2755 18.142-3.0303 36.726 0.27l2.6177 4.1444-8.1277 0.9754c-8.7061-0.0165-25.375 2.1743-32.29-2.3642l1.0745-3.0256zm19.231 165.92c16.404-3.634 21.406 7.7961 36.065 7.8259l3.9678 5.6656-1.791 4.1719c-15.419 0.8703-2.2102 0.8428-69.512-0.5208 9.6152-8.4046 19.644-12.497 31.271-17.143zm-47.526-79.637c-21.77 65.836-15.018 52.1-21.242 99.232-4.8494 1.8049-7.1912 1.6533-12.178 0.4354-0.9242-25.665 18.788-91.54 33.42-99.668zm3.9675 114.79 170.63 0.3719-1.8457 2.921-88 2.0722c-9.3674 0.3115-18.211 2.8962-27.799 2.8052-18.57-0.1736-37.333-3.1524-56.261-3.2214-16.861-0.0632-54.524 4.2795-67.143-3.3646 20.058-4.8827 49.455-1.4439 70.422-1.5843zm46.975 17.865c7.1909-0.7028 14.878 1.0911 21.738 3.3177 28.406 9.2369 62.102 1.3006 91.499 3.0009l3.6646 4.3455c-12.753 10.793-19.072 3.5015-28.406 1.5708-17.004-3.5198-71.68 4.2979-95.3 4.5358-16.118-4.1666-75.078-10.036-88.964-3.767-3.7197 1.6863-7.3562 2.48-11.352 3.3839-6.8879-1.736-12.922-2.7335-18.349-7.6468 11.602-7.7033 84.297 8.1899 125.47-8.7408zm-123.73 35.159 20.994-2.5215 11.544 2.0474 2.8376 4.1473c-4.8215 4.905-14.079 3.3259-20.912 3.596-6.5295-0.361-12.04 0.6751-17.165-3.596l2.7004-3.6732zm-1528.6 91.853c-5.1659 7.7681-10.307 10.805-18.305 15.156-13.922 1.0918-25.769 1.3597-36.046-7.906-6.7391-6.0732-6.2844-6.594-6.8436-15.822 3.8655-8.1705 12.858-11.565 20.482-15.757 11.436-0.6925 27.1-3.6512 38.071 9.9918 4.116 5.1173 3.3392 8.3385 2.6421 14.338zm89.669 11.929c-6.8163 0.1074-13.197 0.5676-19.757-1.6177 7.1382-9.0834 11.606-14.362 9.1692-26.233l8.1414-1.0004c1.7717 1.9401 5.3755 4.9133 6.505 7.1233 1.4713 2.8824-1.3197 10.422 0.0524 13.472 0.9727 2.1604 4.1136 5.0786 5.684 7.0186l-9.7948 1.2373zm-1471.6 838.85-35.192-0.0056 0.2396-63.856c10.483-0.0414 25.662-2.0887 35.464 1.1958l-0.5124 62.665zm22.096-1.1325-0.1459-8.2723c7.0587-2.5408 17.286-1.2621 24.777-1.3062 20.57-0.1239 48.932-3.7615 68.105 1.3062l0.6613 7.3491c-11.663 5.7179-77.932 3.4638-93.397 0.9232zm2672.5 434.32-102.82-3.0063 0.1379-44.319 102.71-0.0991-0.0275 47.424zm20.719 266.44-1051.4-0.1157 10.161-21.841 1038.6-0.1902c3.2515 6.5364 5.7305 12.654 7.8521 19.653l-5.2071 2.4936zm15.401 22.175 11.544 24.583c-98.004 0.0156-979.36 0.2246-1103.1 0.2534l10.864-23.445c55.628-0.2777-74.044-0.0633 1080.7-1.3914zm-39.867-71.076-1001.3 0.0688 11.31-24.941 988.78-0.3967c3.3611 7.8728 6.998 15.632 8.8438 24.034l-7.6316 1.2346zm-975.95-49.962c3.2787-6.4949 6.593-15.126 11.685-20.32 3.3402-3.407-58.322-1.9658 936.98-2.199l13.445 22.15c-40.442 0.1294 72.776 0.0605-962.11 0.3691zm936.77-46.991c-11.034 0.9343 62.861 0.5972-913.63 0.9536l10.773-19.168c768.46 0.25 601.16 0.2993 837.01-0.0386 13.914-0.022 50.888-3.9958 61.716 2.615 2.8931 5.8582 5.951 9.0383 4.1326 15.638zm-21.022-43.109-10.827 1.1711-858.44 0.1543 11.654-22.494 850.81-0.011c2.6172 5.9796 7.9348 14.657 6.8049 21.18zm-1293.8-838.49c1.6724-0.7744 3.0334-1.4385 4.8794-1.7058 7.224-1.0416 16.484-2.1824 22.03 2.4856-11.106 2.0971-16.834 5.3789-26.91-0.7798zm-1.9066 63.985c-5.1686 8.9198-12.15 10.785-21.408 13.279-8.1829-0.8239-16.983 0.3389-23-6.4618-5.9456-6.7211-7.4718-14.266-6.0806-23.04 2.3062-14.544 11.952-25.095 23.57-33.067 2.7164-0.5292 6.9237-2.1411 9.3922-0.9259 17.635 8.6624 25.87 35.811 17.526 50.216zm27.846-41.941 31.957-19.595 2.4688-0.2014 0.3333 2.6482-28.893 27.542-6.1138-6.7211 0.2478-3.6732zm30.737 17.145c16.572-2.8989 36.773-0.9617 53.717-0.9783 7.4197-0.0082 15.95-1.2041 22.628 2.3011l1.4135 7.1947-4.6919 5.1421c-22.044 0.146-55.249 4.7947-75.902-1.2428l-1.5842-7.5173 4.4192-4.8995zm42.201-123.92c-294.7-0.0956-263.55 1.4535-269.36-3.4528l1.4934-9.799c13.123-4.8527 333.6-4.15 362.39-0.7743l9.7671 13.023c-37.038 3.408-67.273 1.003-104.29 1.003zm-169.24 126.37-2.4495 9.7961c-6.7804 3.1139-17.107 1.7524-24.51 1.8049-16.997 0.1185-40.738 3.1854-56.955-1.342-1.3915-5.8997-0.6945-7.1232 1.1158-12.709 18.526-2.6646 40.038-0.5099 58.839-0.3086 7.7093 0.0827 17.184-1.2813 23.959 2.7585zm252.97-343.46c0.172 115.99 0.9935 109.92-1.0856 120.96l-6.4857 0.8513c-1.1322-1.2316-2.7109-2.1713-3.3971-3.6979-1.6915-3.7834-0.0026-20.257-0.0026-25.148l-0.0138-99.395-30.783 0.1984 0.0936 80.254c0 9.3469 2.576 41.315-2.6256 46.925-5.2981-5.7317-2.7579-28.614-2.7606-37.512l0.1707-86.57-3.5294-3.0586-8.3065 1.0663c-3.3146 6.5254-1.7496 18.443-1.7606 25.894-0.0774 95.874 0.9102 92.13-1.7743 100.09-6.6372 0.5154-7.7805 1.703-13.04-2.7417l-0.1047-120.02c-3.09-3.7675-4.2487-4.2583-7.8632-6.0845l1.1847-6.1614c21.005-2.8962 43.383-1.2649 64.572-1.174 7.9238 0.0359 17.266-1.5487 23.871 2.8632-1.2286 3.5492-2.6531 4.9683-5.4166 7.3188-1.6309 1.3863-0.9477 3.0149-0.9422 5.1476zm-334.7-14.155c6.9734-2.1908 17.735-0.9149 25.149-0.9617 19.311-0.1187 39.672-1.5322 58.836 0.8322l-2.9258 7.4374-9.7947 0.8652c-3.0624 4.9288-1.9442 2.4447-2.1655 94.608-0.0331 10.099 1.4602 23.034-1.9589 32.475l-8.1168 0.8792c-1.2258-1.2897-2.8571-2.2872-3.6781-3.8661-1.3114-2.516 0.0083-18.518 0.0083-22.37 0.0461-103.02 0.8647-96.261-1.9037-102.16-5.6234-0.4602-6.8743-1.3888-11.566 2.0337-5.8546-3.3315-13.095-1.7113-19.586-1.1849-3.1917 5.4962-2.0974 0.9705-1.6808 97.069 0.0166 8.8704 1.7468 21.904-2.025 29.832l-9.7615 0.7965-3.8323-3.4584 0.2726-123.03-5.2733-2.3368 0.0028-7.4623zm-0.9201-15.988c-1.7412-0.5209-4.276-2.6095-5.9126-3.6072 9.7012-2.1869 90.218-2.964 93.937-0.9946 1.4932 0.7908 2.4988 2.2788 3.7498 3.4196-20.818 5.1438-49.354 1.1271-71.543 1.1602-5.4745 0.0082-15.354 1.4825-20.231 0.022zm43.978 148.26c-1.89 0.2313-2.9921-0.6117-4.7167-1.3394l0.3442-118.68 1.7191-0.3335c5.2709 5.9716 2.6258 104.09 2.6534 120.36zm-41.225 19.595c12.583-3.0624-10.876-0.1553 276.42-1.1575 17.28-0.0604 39.03-2.6729 55.806 1.1575l-0.2782 9.7988-2.8076 0.9176c-20.165 4.2631-48.113 0.689-69.366 0.7274-222.04-0.1917-179.41-0.1436-240.91-0.2422-3.8656-0.0085-12.409 1.1848-15.539-0.0277-1.4548-0.5649-2.5928-1.7333-3.8903-2.6013l0.5648-8.5726zm103.11-15.503 16.484-67.73c6.4719-18.68 16.636-32.946 34.525-41.687 10.985-1.8711 19.388-2.3506 29.431 3.6262 31.874 18.964 35.343 72.723 43.344 105.77-59.566-0.0591-31.889-0.0614-123.78 0.0247zm135.83-155.96c13.545-2.707 89.984-4.7668 99.282 2.4498-21.187 5.4564-50.651 1.2159-73.163 1.2069-5.6207-0.0028-15.647 1.4825-20.515-0.0192-1.6145-0.4962-4.0968-2.6593-5.604-3.6375zm64.085 151.86 1.1379-117.57c1.4437 0.6282 2.6781 1.576 3.9813 2.4496l-0.4905 117.57c-1.7302-0.5015-3.0995-1.5157-4.6287-2.4497zm27.778-193.02 2.2068-3.2489c273.87-13.925 250.72-13.758 255.47-10.705-6.3206 6.043-45.832 4.4364-57.244 4.9436-22.942 1.2532-177.3 9.7494-200.43 9.0107zm466.73 249.63-28.053-0.248-0.3718-178.37c-0.0276-26.509-3.6726-58.05 1.6008-83.746 7.1467-2.3973 16.564-1.6947 23.804 0 7.0837 12.665 2.8928 47.507 2.9453 62.864l0.0745 199.5zm-41.463-266.23c-21.961 0.0304-105.44 5.7068-120.74-3.4777 10.685-2.355 0.5789-1.0259 112.69-1.2731 12.045-0.0221 31.054-2.6923 42.438-0.0634 1.4219 0.3279 4.4026 2.8879 5.7664 3.7863-9.5921 4.6896-27.752 1.0102-40.145 1.0279zm-19.242 123.89-0.7576 139.62c-5.8381 2.7169-17.291 1.1903-23.926 1.0719-6.2209-8.7629-3.3418-124.49-1.3442-143.14 3.9509-1.6616 8.6265-1.16 12.85-1.218 6.8822-0.0938 8.1056-1.2676 13.178 3.6677zm-47.945 140.23c-7.0701 1.1572-14.85 0.6227-22.036 0.7137-6.4609-7.8206-3.0833-46.427-3.0723-58.38l0.7495-200.14c6.8579-2.8602 15.77-1.8766 23.135-1.9536l2.9094 4.4034 0.0854 174.09c-8e-3 24.776 3.816 57.391-1.7714 81.263zm696.1 20.055v36.688l-746.38 0.1571-5.188-36.586 751.57-0.259zm-218.23-28.179c0.1101-240.71-1.4626-225.11 1.281-248.42 4.8301-3.0862 10.035-1.7223 15.44-1.1104l1.6282 9.6445 0.0471 249.51-363.09-0.0522-0.0801-176.4c0.0083-25.842-3.4771-57.722 1.6311-82.861l12.183-1.2814 3.7524 3.7312-0.0112 246.88 327.21 0.3555zm-231.84-143.1c1.4749-4.984-0.6614-1.1831 64.462-71.453 7.0146 6.2736-1.7688-2.9199 50.72 54.437 3.3916 3.6925 12.624 11.452 14.451 15.721 3.1821 7.4292 0.124 111.99 0.1433 129.49-84.916 0.0695-54.537-0.0422-129.94 0.5265l0.1294-98.411c0.0084-7.8534-2.0773-23.15 0.0387-30.306zm270.62 148.16 1.1821-254.74c5.9565-2.006 14.495-1.0911 20.829-1.2097l3.3806 3.6595 0.4875 193.49c0.0083 13.709 4.1743 52.591-3.8682 62.153-7.7831-0.0304-16.128 1.9344-22.011-3.348zm92.582 0c-7.3564 2.3092-17.523 1.1133-25.265 1.0251-6.5847-7.972-2.7275-119.46-2.7002-139l29.508-0.0828c-0.197 123.67 0.677 123.11-1.543 138.06zm29.177-252.29c0.7439-1.6533 2.0662-2.976 3.0857-4.4641 12.351-0.5482 7.6099-0.3423 20.802-0.901l2.9204 4.1416 1.2397 199.76c0.0278 11.505 3.6091 48.38-2.9204 56.184-16.84 0-19.418 0.8571-25.154-3.6512l-0.0552-205.65c0.0274-9.7218-3.0031-38.504 0.0828-45.418zm170.02 393.59 0.5234 22.811c-7.8572 6.0471 67.645 3.5203-975.13 3.8964l-2.9507-28.391c12.587-4.5271 43.127-0.313 58.374-0.2067 721.39 2.4387 909.82-3.4838 919.18 1.8903zm-1117.6-569.81c-7.326 0.4905-9.814 1.0085-16.487-2.5875 9.2106-6.9552 49.433-6.2581 63.121-7.4843 229.57-19.654 194.52-16.933 214.75-17.696l3.5293 4.3622c-6.5933 4.9059 9.3264 1.3788-264.91 23.406zm119.22 0.9644-1.2727 33.191c-4.0859 1.2925-8.4033 1.1382-12.652 1.3118-6.1853 0.2563-10.106 1.8545-14.878-2.538l-0.0026-31.306 28.805-0.6587zm-105.84 49.1-2.0002-0.8295-2.1848-6.5061 4.185 7.3356zm230.57-17.394c867.45 0.3401 777.03-0.3739 795.19 1.2097 2.783 6.5088 1.5435 10.796 0.1382 17.421-9.9197 1.8444-822.86 1.0159-832.98 0.9976-3.4053-5.3927-2.7385-11.951-2.9124-18.143 10.878-3.8633 28.893-1.4879 40.564-1.4852zm86.27-288.61 590.37 1.3391 10.029 19.32-3.0029 4.274-9.4226 1.2704-607.84 1.1434 19.867-27.346zm-12.572-45.476c5.8052-0.7413 6.4746-1.6148 11.434 1.8959 0.6443 8.9033 2.9397 19.796-2.3752 27.496-5.1521 0.9092-5.6948 1.7525-10.23-1.2429-0.6885-9.3828-2.3721-19.19 1.1711-28.148zm55.144-132.24 7.3701-2.4744c5.0032-0.2206 5.1711-0.5679 9.0864 2.4496-0.1929 13.855 1.2781 30.132-2.1794 43.541l-9.3813 4.6295-4.9343-1.5734c0.2341-15.523-1.5926-31.086 0.0385-46.573zm450.07 115.1 10.029-0.7164c6.6924-0.1129 16.881 2.3837 21.49 7.5917 4.6758 5.2853 7.7642 14.351 6.9431 21.293l-6.188 3.8027c5.1658 2.9844 8.7009 3.6843 10.599 9.6694l-8.1499 1.4412-52.265 0.0276c6.9597-2.6592 13.28-4.6708 18.678-10.041 1.9473-33.353-0.4084-10.505-1.1352-33.067zm-75.414-20.543-357.51-0.372-2.967-6.0292c6.2422-1.7609-33.27-1.1861 483.97-1.0085l1.3389 5.0731c-14.597 6.8889-103.75 2.3394-124.83 2.3366zm-54.714 67.096c-81.464-0.1075-51.589-0.1499-130.17 0.237l-1.2041-2.7006 7.3149-3.0918c7.2019-4.0397 8.1304-15.972 10.166-23.662 8.1719-7.2472 29.323-15.506 40.021-19.785l3.6755-0.5401c9.3071-1.0031 46.047 14.952 50.789 23.492 1.9727 3.5547 1.1406 9.2395 3.8047 13.026 2.7994 3.9792 11.646 9.7219 15.606 13.026zm-248.64-47.116c-2.0085 8.7573-1.9094 22.698-7.6399 28.876l-17.137-0.0385-6.4551-2.6508c1.2771-17.094 4.9287-23.509 27.86-28.074l3.3723 1.8875zm-37.368 42.004c13.988-1.4108 22.898-5.8971 36.569 0.1984l-0.6392 0.9343c-5.3008 5.7041-80.913 3.3287-92.854 3.585-1.4963-9.978-2.9153-18.967-1.3174-29.014 2.8877-0.3831 4.9678 0.5483 7.7007 1.3889l0.9011 19.43c5.0918 5.4368 9.114 3.7503 16.368 3.8 10.9 0.077 22.458 0.7659 33.272-0.3226zm-84.076 79.273c-4.3723-5.5911-6.4524-9.3747-7.5435-16.426 2.9756 1.8077 8.0227 5.9466 11.169 6.7869 3.1792 0.8494-48.669 0.5267 604.76 0.2728 4.5737-4.0618 4.9043-6.0843 6.8606-11.742l3.499-0.3941-1.0195 7.3354c-1.5981 5.8723-2.6724 10.16-6.8877 14.751l-610.84-0.5842zm589.68 95.859-60.944 0.16-0.0857-76.628c18.57 0.0606 42.625-3.4942 57.64 9.3085 7.6596 13.524 3.3339 50.67 3.3891 67.16zm-206.56 0.2205c-156.35-0.1845-147.7 1.5337-154.78-0.9094l16.093-40.116 23.62-3.0891c6.0557-5.9659 7.3894-18.033 9.3235-26.228l51.819 0.066 10.612 25.294 23.733 3.1718c9.6431 8.5893 14.823 29.634 19.575 41.811zm-349.57-61.648c3.623-8.6857 10.018-12.808 18.47-16.016l38.258-1.8076c-0.0081 15.126 4.5295 67.945-3.408 77.286-20.39 0.2092-6.9824 0.1334-57.046 0.2755 0.5125-16.002-2.1987-45.536 3.7251-59.739zm-34.823 60.598-6.5901-1.5322c-3.8901-22.274-1.51-52.114 1.1765-74.597 2.7412 0.1021 3.9812 1.1188 6.3201 2.4498 0.4024 22.323 4.67 52.329-0.9065 73.679zm604.31-166.09c-0.8542-10.182-0.4409-19.882 0.2754-30.061l6.3372-1.0471 4.4631 3.4969 0.4131 36.74c-4.5183-1.1713-8.1553-5.9136-11.489-9.1294zm32.07 184.19c1.0193 0.7908 1.5706 1.094 2.3145 2.3174 3.3887 5.5332 8.1274 18.322 6.3091 24.054-16.374 0.8069 63.91 0.5408-692.72 0.7826l22.094-27.035 662-0.1184zm-10.883-80.761c5.1655-5.67 7.0989-8.5722 8.4309-15.922 4.656 22.701 2.2039 53.721 0.7712 76.981l-5.4551 1.3778-3.6919-2.4305c-5.4552-9.6198-0.4408-47.327-0.0551-60.006zm383.24 265.48 0.2207-7.0626c21.82-4.3318 298.05-2.2705 303.4 1.2208l-0.5239 6.1284c-15.704 4.4641-291.85 3.9572-303.09-0.2866zm269.34 24.887c-11.859 0.3893 3.999 0.2906-211.78-0.1527 210.72-0.4071 190.39-0.5737 211.78 0.1527zm-260.74-8.2736 0.8818 47.344-272.1-22.924c-8.679-12.075-13.666-35.437-18.735-49.92l289.95 25.5zm197.1 135.54 0.5508 0.3831c5.5378 5.5829 3.0034 30.758 3.0034 39.425l0.0273 90.012-0.4683-0.3859c-5.6482-5.8611-3.0581-30.493-3.0581-39.422l-0.0551-90.012zm102.46 142.07 3.3064 0.4602 0.2476 9.3387c-14.189 8.4928-301.08 3.4556-341.09 3.4308l-6.2263-2.3065-0.0828-7.2471c6.6136-4.6729-26.317-2.2915 343.84-3.6761zm-88.991-137.17c3.1411-1.5487 6.3643-1.2179 9.7803-1.1958 4.4365 7.4978 2.1768 24.494 2.2043 33.508l-0.3582 92.61c-2.9202 1.1768-6.0886 1.3943-9.2019 1.8545-6.9982-10.356-2.8657-109.05-2.4245-126.78zm28.874 124.92c-2.8105 0.7991-3.9126 0.5043-6.75 0l0.2751-137.17 3.5815-0.0414c4.0779 12.097 2.0117 29.752 2.0942 42.814l0.7992 94.396zm13.858-124.92c6.0337-0.8707 5.9509-1.1241 10.828 2.4498l-0.2754 122.47c-3.3337 1.4467-5.7031 1.4716-9.23 1.6836-6.4743-10.683-3.7468-109.03-1.3222-126.61zm25.513-7.3464c6.1162-0.5071 6.8049-1.2262 12.012 2.4497l0.3857 94.953c0 10.543 2.4519 28.215-3.031 37.316-5.4829 0.3142-6.0613 0.7937-10.772-2.4497-0.6669-127.86-1.9152-122.05 1.4053-132.27zm31.519 181.26c1.0469 8.4348 0.6335 15.396-0.6338 23.77l-3.1685 1.0278c-20.333 4.2134-49.262 0.3859-70.477 0.4022l-201.15 0.0497c-86.07-0.0093-71.696 2.4402-80.01-3.2046l0.9919-22.045c6.7246-2.2972 4.7192-1.6278 73.976-1.7472 295.25-0.064 273.54-0.526 280.47 1.7472zm-330.21-178.81c5.8962-0.248 8.8164-1.3971 13.693 2.4498l0.0273 128.04c-3.9949 1.9484-7.8521 1.7058-12.233 1.9484l-3.5818-3.8441c-0.1377-22.935-5.2073-113.64 2.094-128.59zm24.907 4.8967c1.8457-0.2341 2.9756 0.6255 4.6838 1.342l-0.083 121.13c-1.7908 0.2343-2.7827-0.6118-4.4082-1.3392l-0.1926-121.13zm17.798-2.4469 8.9817-0.8542 3.251 3.3011-0.3308 124.92c-3.2783 0.8845-6.9155 1.0636-10.276 1.4935-6.2544-8.5892-3.8299-112.05-1.6255-128.86zm21.463 91.544 1.3501-98.893 3.0583 3.7504c0.5686 120.39 1.1438 118.45-0.9922 132.67-6.0339-9.6611-3.4162-26.052-3.4162-37.532zm134.2 3.982c-1.3337 14.298-5.3315 17.928-0.7166 33.963-55.862 0.3853-33.821 0.2866-96.981 0.4023 0.9963-37.839-26.076-69.562 43.752-115.2 4.5459-1.3502 5.6206-1.9619 10.002-0.1046 14.326 6.076 33.971 21.877 39.454 36.644 5.1447 14.032 5.864 29.352 4.4912 44.291zm-90.562-121.27c-41.162 0.0441-85.162 3.0917-125.88-1.1987 15.457-5.3265 182.28-5.04 195.84 0-21.518 4.0534-47.72 1.1765-69.953 1.1987zm-126.96 153.12c-0.978-0.7611-2.2131-2.189-3.7747-3.7504-1.5703-3.505 0.0552-19.391 0.0825-23.974l0.2207-94.749 1.1296 0.314c6.7504 13.8 2.3695 100.61 2.3419 122.16zm572.74 268.08c11.324-0.0027 28.544-2.7336 37.966 2.9512v16.371c-5.4441 3.5798 24.889 2.252-420.74 2.2568-38.793-0.0137-81.002 3.2489-119.41-0.7688-12.922-1.3529-29.398-13.414-40.749-20.086 513.92-0.8366 406.42-0.7136 542.93-0.7246zm-525.46-22.563c3.1958-11.022 0.3032-24.715 3.4165-34.382 3.4163-10.513 21.022-27.564 28.736-36.008 9.7261 11.309 18.818 23.395 25.513 36.749 0.4131 10.592-1.405 19.468-7.9348 28.168-5.1799 6.9138-12.701 6.4784-20.526 7.7212-8.4577 0.1571-22.013 2.1054-29.204-2.2485zm185.15-55.699c-3.3613 0-1.46 0.3472-4.739-1.2263-11.057-5.3044-79.06 3.8278-114.78-1.8213l-1.5156-4.1666 125.72-0.3004-4.6839 7.5146zm28.213-11.29c9.8633 9.6115 21.05 20.165 25.485 33.572 5.1028 15.579-1.1567 32.464-18.818 37.242l-29.976-0.6475c-2.9204-3.4143-3.3611-4.0563-4.1602-8.4984-4.2153-23.704 14.74-43.85 27.469-61.668zm-109.44 37.173c-9.6702-0.011-20.085 1.1821-29.149-2.6013 8.2656-3.5548 21.105-1.8325 30.059-1.849 21.71-0.0441 45.432-2.0062 66.812 1.849-17.688 6.5776-48.133 2.6262-67.722 2.6013zm64.443 31.692c-11.874 2.6178-58.657 4.1885-68.272-1.3448l-0.8821-13.354c12.404-5.174 58.95-3.6255 67.281 0l1.8733 14.698zm162.2-30.777c-15.484 0.0854-59.29 3.7751-71.716-3.5162 7.5186-2.1771 2.1885-1.1442 97.587-1.1794l1.2952 3.6292c-8.5833 2.7023-17.515 1.0116-27.166 1.0664zm17.936 16.079c-2.479 4.1995-5.5103 6.834-9.2019 10.006l-0.0825 4.6927c-15.815 2.7334-35.018 0.766-51.246 0.6917l-2.8103-3.1415 1.157-12.249c10.773-3.9486 50.888-3.2625 62.184 1e-4zm-66.316-44.762c-9.8914 0.0688-25.375 2.6729-34.55 0.573-1.4863-0.3373-4.687-3.1688-6.1135-4.0454 0.0525-0.0491 0.1169-0.089 0.167-0.1399 0.0325 0.1108 0.0747 0.2021 0.1057 0.3164 24.99 0.5127 121.14-5.9713 136.33 2.2267-14.93 5.0242-72.043 0.9009-95.934 1.0692zm165.09 47.212c12.288-1.2374 23.997-1.1134 36.34-0.5623l2.3972 4.161-5.8411 3.7256c-11.93 0.6063-26.229 2.8768-37.828 0.0248l4.932-7.3491zm-3.8022-19.595c11.021-3.5134 27.166-1.6506 38.848-1.7939l2.7551 4.219c-9.4228-0.3527-35.9 2.254-41.603-2.4251zm235.04 158.31c0.2478 6.6576-1.8186 11.921-4.05 18.049l-4.9871 5.4974c-21.683 2.6592-45.019 1.0333-66.868 1.0554-670.47 0.5072-618.18 0.6464-625.31-1.6533-1.0466-8.6168-0.5784-15.922 0.5789-24.495 10.97-3.316 31.061-0.9259 43.807-0.9341 705.88-0.2534 649.28-1.5816 656.83 2.4802zm-79.404-75.03c12.012-6.1753 58.657-4.048 72.02 0-14.052 5.3073-57.941 5.1062-72.02 0zm246.7 158.1c426.35-0.0492 468.62-2.7344 476.64 2.4801-0.1099 7.2887-0.1099 12.858-3.6641 19.496-10.963 5.7406 17.281 4.0885-511.25 4.6982-185.37-0.8088-173.92 0.3483-182.89-2.6122-0.3579-6.6934-1.8457-14.456 1.4602-20.502 140.47-6.9344 101.43-3.5025 219.7-3.5601zm-859.61-228.3c-1.6804 11.022-6.9431 16.685-15.291 23.084l-5.0417 1.6864c-14.189-2.1797-21.27-13.166-29.37-23.798 0.3303-12.177-0.9648-28.846 3.0854-40.284 2.7554-7.7488 9.3403-16.264 13.886-23.164l15.016 16.319c9.4501 11.758 20.14 30.422 17.715 46.156zm-352.77 33.83c-842.28 1.3657-783.33 1.5747-791.89-0.3721-1.8433-7.33-2.7332-12.042-0.5952-19.595 6.5022-1.4138-54.76-0.6036 823.06-1.0967 15.153-0.0083 52.458-4.1748 64.498 2.7996 0.5786 6.823 0.8538 11.397-1.8186 17.892-29.562 3.5356-63.148 0.3033-93.262 0.3721zm24.218 678.46-53.175 0.3335-0.0549-641.59 52.871-0.0247 0.3584 641.28zm-141.92-553.91c-4.366 21.749-3.4426 0.5767-3.8325 465.69-0.0469 15.754 3.5293 79.841-3.7388 87.378l-13.467-0.5457c-6.4553-11.033-2.4272-570.41-2.4246-639.99l44.044-0.1074-0.1377 638.7c-5.5654 2.7585-8.4968 2.4001-14.547 1.3228-5.2651-7.5725-2.0222-86.942-2.0222-100.85-0.2231-430.2 1.6736-388.55-3.8738-451.6zm-90.818 63.139-298.82-0.3501c0.6238 513.89 1.1047 482.78-2.3306 490.48-6.4084 0.4353-8.5413 1.5017-14.002-2.1467l0.022-506.06 335.42-0.0605c0.2742 477.22 0.2354 388.44 0.2427 483.38 0 4.4666 1.4683 17.911-0.0029 21.513-0.6035 1.4771-2.0498 2.4497-3.0747 3.6731l-11.478-0.5786c-4.4358-5.8613-2.48-18.573-2.5154-25.765-1.0383-490.69 3.6212-455.75-3.4606-464.09zm-331.1-35.2c0.1929 58.482 4.3286 511.02-1.8872 525.36l-11.649 0.2673c-6.9019-9.7327-3.0693-492.21-3.0527-545.01l399.9-0.0194c0.0574 585.66 1.584 539.35-3.0691 545.03-5.6179-0.0166-7.8577 0.5154-12.746-2.4497-0.4065-553.3-0.094-510.44-0.9504-520.5-9.7894-7.2086-328.51-2.6921-366.55-2.6783zm-15.977-35.344 0.1436-79.772 399.05-0.4906 0.1433 79.304-399.34 0.9589zm-16.129 561.45-41.501 0.0496 0.9395-631.36 40.36 0.1654 0.2011 631.14zm-115.14 0.5706h-46.92l0.3857-639.55 46.028 0.0717 0.5069 639.47zm732.98-598.36c-2.4797-7.9554-0.9917-16.63-0.3857-24.842 5.4546-1.9152-12.585-1.5847 225.76-1.4963 19.148 0.0276 45.074-3.0807 63.451 1.4963 2.1765 7.8563 0.7715 16.308 0.0828 24.315-11.599 4.1667-267.2 4.321-288.91 0.5265zm239.95 41.141c-19.919 3.8882-47.416 0.6503-68.19 0.6613l-170.54-0.551-3.3335-3.6318 1.4326-13.472c20.829-5.2908 53.532-1.1738 75.574-1.1794 54.525-0.0137 110.73-2.7776 165.06 0.8516 2.6453 6.528 1.4329 10.736 0 17.322zm-195.89-315.82-22.014 0.4243-3.4163-4.1002-0.2759-106.03c0-15.44-2.8376-37.377 1.9839-51.96 8.238-0.8075 15.429-1.3364 23.667 0 4.4502 12.399 2.0613 31.098 2.1492 44.677 0.4559 113.2 1.6602 109.17-2.0937 116.99zm52.237 50.262c-5.2405 25.678-4.324 24.286-8.155 30.543l-78.412-30.609 86.567 0.0662zm36.92-264.85c0-8.8234 2.7275-34.732-0.0276-41.375-0.7717-1.8408-3.6643-4.5413-4.9871-6.2002l3.1133-4.8223c11.032-3.9552 17.151 0.274 23.502 4.4364l-0.5508 288.29c-5.0972 2.0227-11.654 1.4938-17.165 1.7141-1.2124-1.397-2.8657-2.5104-3.6646-4.1884-3.1133-6.4401-0.0276-36.545-0.0276-44.95l-0.1925-192.91zm25.568 267.25c4.9314 11.425 9.5325 23.04 9.2849 35.652-0.2207 11.976-2.8103 18.115-11.379 26.415-11.214 5.3872-26.064 3.7725-38.324 3.8083-12.315-27.09-11.517-38.449-1.9558-65.909l42.374 0.0332zm100.4 2.6234c0.0276 8.6387 1.9563 22.403 0.0552 30.449-0.5508 2.3452-8.2104 9.7134-10.166 12.031-3.9675 5.3735-7.6594 9.6145-12.784 13.927-17.082-0.7136-30.748-4.4779-47.168-8.3799l-8.3479-48.16 78.412 0.1324zm-52.513-35.685 0.854-176.36 12.839-1.2482 3.5542 3.6979-1.1023 176.08c-3.9397 1.3201-8.1277 1.3529-12.26 1.7139l-3.8845-3.8798zm32.208 0 2.8103-269.44 3.1409-0.8293 3.499 2.0527 0.4958 186.66c-0.0276 24.853 4.2981 60.455-1.9563 84.007-4.2978 0.3031-4.3803-0.0056-7.9897-2.4497zm5.9512 139.62c-29.535 3.7422-62.708 0.9535-92.601 1.0417-8.1831 0.0248-23.474 2.1466-30.968 0.0854-1.1296-0.3115-3.6646-2.7694-4.7114-3.574 12.829-4.4062 66.987-1.696 93.73-1.7445 10.359-0.0191 26.174-2.5295 34.55 4.1914zm-55.627-171.46c-7.1357 0.4796-11.158 2.3451-16.834-2.4496-0.3623-129.46-1.1692-126.99 1.2676-142.07 4.4082-0.6862 9.2024-0.5621 13.666-0.7853l3.2783 3.235c0.5673 131.58 1.6044 128-1.3775 142.07zm-3.1409 151.86c-12.884 2.6699-53.294 4.118-62.79-2.4498 15.649-4.2575 47.361-1.9951 62.79 2.4498zm83.013 52.045-2.2039 4.0205c-37.112 2.48-74.692 1.4219-111.89 1.4633-20.196 0.0247-43.284 2.2291-63.121-1.1906l-0.0828-4.8994c11.186-3.122 170.38-3.0669 177.29 0.6062zm-77.172-464.76c-52.266-3.676-105.91-4.3429-157.6-13.489 12.894-3.1497 27.221-1.1876 40.363-0.3995 187.91 16.264 174.31 12.451 189.75 17.545-22.62 3.7835-49.51-2.0392-72.516-3.6566zm99.461-94.658c0.7715 5.5031 0.9092 8.1787-1.5981 13.205l-10.635 0.62-253.12-23.111c5.3728-2.6562 9.946-8.2281 14.217-12.422 16.852-1.6942 29.532-0.0386 186.44 13.905 16.503 1.4851 51.329-0.5017 64.691 7.8036zm-22.674-56.498 14.271-4.4006c4.7939-0.8348 4.5737-1.0197 8.6238 1.634-0.0828 8.151 1.8738 23.604-2.6724 29.876l-4.8767-4.7699-8.5686-4.0837c-0.9641-8.4845-7.7143-9.1128-6.7773-18.256zm-236.17-14.197c1.8738 1.0995 2.2595 5.2054 2.8379 7.3464l-1.4053-0.6945-1.4326-6.6519zm70.339 32.924c5.9238-11.295 13.39-20.637 21.38-30.477 2.314-0.6558 1.2397-0.4519 3.9949-0.7192 7.0532-0.6752 7.136-1.1133 12.371 3.1689 2.4797 9.2699 8.7063 23.919 6.3093 32.88-12.45-1.2601-3.6967-0.3102-44.055-4.8526zm111.42-15.779c4.6011-0.5485 4.9592-0.5292 9.0366 1.6174 0.5789 8.8263 1.0471 16.627-0.9917 25.327-5.0417 0.361-4.9868 0.5457-9.0095-2.4497-0.7434-8.4982-1.8457-16.261 0.9646-24.494zm33.034-18.264c-27.393 1.5137-102.87-9.1903-172.67-17.559-104.89-12.209-110.58-11.958-123.6-17.776l2.4524-2.7391c11.488-0.9397 25.402 1.6671 36.864 2.9927 248.21 30.586 234.48 27.048 257.99 33.233l-1.0469 1.8488zm-277.03 3.9269c-15.429-0.4878-32.704 0.3389-47.829-2.381-14.299-2.5682-28.709-10.325-42.65-14.743l-102.7-30.243 151.88 0.4685-5.9514 6.123c5.1797 15.343 34.274 31.88 47.251 40.775zm-707.28-46.898c-7.2874 2.0502-11.362 2.3395-18.603 0 6.8298-2.0253 11.806-1.2124 18.603 0zm6.5986 19.598c7.6399-5.5944 1.0869 0.2529 14.153-19.598 10.261-2.2406 2.814-1.3225 133.93-0.1046l-72.695 20.179c-36.668 12.692-67.314 21.728-106.24 25.238 11.721-7.6661 19.975-17.749 30.852-25.715zm721.53 95.523 0.4409 30.557c-836.96-0.3007-780.78 1.5692-788.54-3.6125l-0.7053-28.793c836.07-0.6402 781.49-1.9611 788.81 1.8488zm2.7554 211.27c5.4001 8.3137 2.8101 28.782 2.8376 39.165 0.0276 36.228 1.9014 73.55-1.1021 109.63-3.4985-1.8436-4.0225-6.167-5.3999-9.7991l-8.5964-3.7062c-3.5112-5.8125-2.3962-2.2758-1.9282-133.46 4.105-2.5846 9.4778-1.8765 14.189-1.8351zm-1042.7-36.57 22.143 9.2257 0.821 198.48c-7.3839 0.7246-10.751 2.1879-17.14-2.031-8.4034-19.711-4.6812-51.103-4.8685-72.47l-0.956-133.21zm66.725 259.57c-30.482 23.456-18.133 14.047-54.558 41.513-7.0367-3.2654-16.845-6.8558-21.727-13.084-6.6481-8.4817-8.9375-18.724-7.1991-29.146 26.042-3.3096 57.263-0.2068 83.484 0.7164zm12.552-52.18c-5.3641 1.7925-15.511-0.0604-21.168-4.8749-0.2776-137.98-1.0404-135.51 1.2646-151.86 5.4414-1.5239 11.798-1.1932 17.454-1.4523l3.9095 3.902c-8e-3 142.37 0.6684 138.19-1.4601 154.29zm25.626-262.06 15.999-1.0664 3.546 3.5161-1.1299 269.44c-7.0293 1.7958-15.145-0.6212-20.895-4.8995 0.268-277.73-0.5189-258.46 2.4798-266.99zm11.888 297.03c12.382 7.1647 21.462 18.903 24.165 33.128 1.6117 8.4734-9.0535 23.993-14.173 30.681l-12.61 1.6616-37.36 0.4547c-1.7166-9.7577-5.447-24.178-2.6094-33.665 4.2734-14.299 14.239-25.812 27.133-32.91 6.9281-1.98 12.539-1.0365 15.454 0.6505zm25.874 109.57c-19.35 3.3812-42.43 1.3035-62.176 1.3778-4.5542 0.0166-14.79 1.3447-18.617-1.1241-2.7026-1.7443-3.0526-6.9498-3.86-10.05 9.9821-2.9043 52.202-4.3705 61.203-0.2424l23.449 10.038zm-63.388-116.49c-9.2711 0.631-18.68-0.2424-27.951-0.7717l1.8241-5.2052c7.1301-1.7912 20.756 0.8745 26.127 5.9769zm-22.807 50.359 1.7744 3.5989c-10.602 8.5452-20.746 16.211-32.833 22.662l-2.7329-4.0507 33.792-22.21zm107.15 97.601 1.3501 3.8744-138.21 0.3444-0.6503-3.8412c10.701-2.4206 4.2598-1.3653 137.51-0.3776zm102.9-210.27c-3.5928 1.3282-6.031 2.6344-9.1223 4.8967l2.4133 17.148c1.1682 4.5356 1.5815 4.5219-0.5759 8.6029l-9.7915-0.3942-3.0144-3.3121 0.7825-154.31c5.075-1.9703 11.55-0.9121 16.922-0.667 7.1689 11.378 3.6396 108.66 2.3859 128.04zm-3.1023 55.873-2.9563 3.8744c-14.616 7.3658-34.723 6.8864-50.877 8.3522l-46.474 30.188c2.0664-5.5194 8.0673-11.083 11.9-15.721l22.796-29.193c21.104 0.3419 44.961-1.4107 65.611 2.4994zm-60.421-195.49c7.1746-0.2344 14.983-2.4249 20.418 2.4497l0.3169 112.71c0.0166 14.83 2.9038 36.897-2.4465 50.67-6.2598 0.554-11.839-0.1681-17.997-1.0857-0.5317-0.7991-1.686-2.3892-2.0745-3.4196-3.0776-8.1843-0.843-26.402-0.8872-35.492-0.1088-122.29-1.4257-118.03 2.6696-125.83zm-234.76 274.33c3.5736-0.7412 6.3203-1.791 9.9296-0.3086 14.517 5.9728 34.143 35.979 23.928 56.41-5.4028 10.81-14.338 15.029-25.237 18.757-12.526-0.9797-26.289-0.1644-32.156-8.6058-14.646-21.074 0.9732-51.442 23.534-66.253zm270.18 133.51c1.5596 0.7606 2.4661 2.4415 3.6975 3.6622-0.0276 9.0411 1.7278 15.883-3.6975 23.282l-308.12-0.0111c-1.2921-7.8149-5.1547-14.88-8.5244-21.971l3.2704-3.7502c26.198-1.5653 307.67-3.999 313.37-1.2125zm-239.85 48.595c14.162-3.577 222.17-1.6757 228.05 1.6063l-0.438 13.695-3.1438 1.5293c-11.315 3.4666-34.464 0.5925-46.995 0.6173-24.232 0.0524-169.39 4.3621-180.65-2.5187l-0.8679-13.323 4.0447-1.6062zm140.47 431.4 0.1846-387.53 104.41 0.077 0.5454 387.23-105.14 0.2261zm103.24 58.868-0.7549 13.472c-18.599 5.4192-55.388 1.5383-78.194 1.6782-4.6864 0.0276-16.983 1.5845-20.402 0.1184-1.5566-0.6694-2.7247-2.0144-4.0886-3.0203l0.4905-13.472c13.332-4.6975 52.98-1.7759 77.428-1.7524 8.2657 0.0084 19.016-1.9811 25.521 2.9761zm812 101.36c3.8848 5.0757 5.0417 5.1531 4.353 11.764l-9.7808 1.1299c-183.92 0.0791-797.12-0.3162-812.88 1.8738-2.9922-4.3374-6.8438-7.7791-6.144-13.13l6.1689-1.3503 818.28-0.2867zm-6.6953-87.893 0.7715-17.146c10.91-4.6763 87.228-3.1853 100.87-0.7742 1.9836 6.9358 0.937 12.712 0 19.702-7.7649 2.7043-18.487 1.1379-27.689 1.1628-16.531 0.0499-61.496 4.7564-73.949-2.9455zm-0.2478-74.335 0.1379-377.99 103.02-0.0359 0.2202 377.87-103.37 0.157zm148.42 143.49-4.0222 2.3782c-7.384 0.2095-13.611 2.2788-19.149-2.9458l1.0747-519.28c5.0144-2.2074 12.922-1.1244 18.432-1.0885 1.0745 1.1793 2.5896 2.0748 3.2783 3.5381 1.4053 3.0973 0.0552 17.206 0.0552 21.226 0.2576 94.784 0.171 2.6916 0.3306 496.17zm43.091 1.882c-7.3403 1.1394-15.899 2.0859-20.967-2.4497l1.3777-519.28c4.7664-1.9264 11.764-1.2456 16.889-1.3917l3.3611 3.8413c1.1643 444.98 0.9644 347.74 1.0747 473.82 0 14.266 2.314 31.868-1.7361 45.456zm242.26 0.8074-218.15-0.2122 0.2756-49.821 218.07-0.146-0.1926 50.18zm-217.66-74.291 0.9919-14.696c15.759-4.3594 199.42-4.4695 215.48-0.1846 1.2395 6.6521 1.0193 10.854-0.9368 17.33-18.9 3.6292-43.696 0.9094-63.231 0.9478l-149 0.2288-3.3058-3.6265zm-0.8816-71.742-0.1104-311.58h218.84l0.1379 311.48-218.87 0.0991zm281.58 145.87-41.052-0.0439 0.0549-457.67 41.355 0.0137-0.3581 457.7zm97.78 0.6944-1.0193-458.53 38.792-0.0247 0.0552 458.51-37.828 0.0413zm59.512-149.32 0.1375-309.05 165.89-0.011 0.1655 309.07-166.19-0.0109zm166.38 59.799-0.303 15.922c-7.9348 6.4067-120.9 2.5959-140.46 2.5793-7.9622-0.0359-18.432 1.623-24.824-2.9844l-0.0552-14.29c10.056-7.5837 117.84-3.4998 138.91-3.5796 8.1277-0.3034 20.746-2.9347 26.725 2.3531zm0.0825 89.238-166.19-0.0166 0.2483-50.188 166 0.1792-0.0549 50.025zm41.024-1.0584-15.374 1.072-3.8298-3.5217 1.1023-455.59c5.0415-1.4768 10.938-1.0609 16.2-1.2235l3.3616 3.6733c0.127 478.87 1.0716 440.46-1.4606 455.59zm43.394 0.251c-7.3838 0.3911-13.748 2.2017-20.112-1.7747-2.5898-26.589-0.5786-55.236-0.5786-82.073 0.1304-386.6-0.8691-358.2 1.4602-374.45 5.4004-1.7333 12.315-0.9507 17.991-0.9342l2.8103 3.384c0.6452 483.29 0.9567 444.98-1.5706 455.84zm34.412-497.48c-635.75 1.7714-706.77 0.7728-707.74 0.4519-0.8262-0.2754-3.3337-3.3425-4.1326-4.1277l0.2756-15.919c13.06-4.6184 702.1-2.7832 712.65 0 1.5157 7.374 0.6344 12.472-1.0468 19.595zm18.184 497.23c-5.5376 0.8821-5.7859 1.1907-10.966-1.7085v-253.52c0.1104-51.285-3.8569-105.54 1.6257-156.27l6.9705-1.1382 4.1877 3.5878c0.1226 397.98 2.3297 371.67-1.8183 409.05zm207.99 0.8462-187.82-0.0469-0.0825-46.03 187.96-0.1709-0.0554 46.248zm0.0825-64.531c-18.974 4.5916-113.24 1.0947-148.64 1.1133-8.844 0.0056-28.902 2.7888-36.12 0.0164-1.6255-0.6172-2.4795-2.3862-3.7468-3.5793l2.2864-7.3494c14.938-2.4067 33.837-0.7769 50.695-0.8098l92.794-0.127c10.965-0.011 30.913-2.998 40.363-0.0386 1.5706 0.4905 2.645 1.9814 3.9399 2.9734l-1.5705 7.801zm-188.51-324.38 189.72 0.3859 0.0833 294.03-189.78 0.4189-0.0276-294.83zm188.34-8.7379c-15.815 3.618-37.746 0.8871-54.166 0.8789l-131.23-0.5071-2.9204-4.0452 1.7356-8.5728c18.129-3.2488 39.536-0.9259 58.189-0.8956l126.19 0.2977 3.9399 4.2712-1.7356 8.5729zm38.214 396.12-2.3145 0.8376c-6.4746 1.4248-10.635 1.2153-15.814-2.5957l0.7434-406.6c4.0779-2.3698 10.25-1.5045 14.933-1.4357 4.1919 5.7981 3.0767-23.76 3.7192 295.01-0.0276 37.688 2.3147 77.344-1.2669 114.79zm28.709 1.6919 0.0273-46.393 181.73-0.0745 0.3027 46.41-182.06 0.0576zm217.16-0.5152c-8.0449 0.2644-12.591 1.8545-19.23-2.9348l-0.1382-60.433c-209.64-0.1592-195.2 1.054-201.04-2.0254l-0.3584-7.3494c10.663-6.8088 174.98-2.469 201.68-2.4275 0.041-355.98-0.8677-325.91 1.6255-336.82 5.2622-0.9452 11.076-0.8378 16.42-1.1711l3.9126 3.6207c0.0827 46.54 4.3532 398.22-2.8656 409.54zm-215.81-415.82 181.7-0.3638 0.3306 321.18-181.98 0.0801-0.0552-320.9zm258.82 415.34c-6.8325 0.3967-11.599 2.02-17.44-1.9343-0.4683-42.913-5.3447-395.05 1.7637-409.57 4.7939-0.7909 10.194-0.1323 15.071 0l1.2671 1.7607c1.4326 2.2018 4.7392 388.51-0.6612 409.74zm-550.84-436c7.5076-3.6459 5.416-2.375 110.18-2.4497 28.035-4.8297-1.637 0.1412 430.8-0.0439 17.605-0.0029 36.588-1.4772 53.973 1.4797v3.4388c-9.6069-2.5861-577.22 0.5577-594.95-2.4249zm591.37 436c-6.1719 0.2397-10.855 1.8105-15.622-2.4497-0.5171-418.92-0.7573-396.17 1.9009-409.05l13.61-0.7358 2.5898 3.1854c0.1582 436.1 0.9482 402.14-2.4795 409.05zm98.056-9.7961-2.4243 2.5049c-5.0552-8.3052-4.0229-4.6538-2.2598-259.7l3.251 2.9927c4.8843 124.92 10.554 202.34 1.4331 254.2zm31.464-1.2786c-0.2759 1.2097-2.7275 4.0508-3.5269 5.2275-7.416-9.6594-6.1846-17.099-4.9043-194.13 0.6616-23.759-0.1929-48.534 4.3804-71.908 2.2046 0.4492 2.9766 1.1353 4.7393 2.4497l0.1377 201.21c-0.1924 17.093 2.5903 41.169-0.8262 57.157zm119.08 4.3401c-5.7437-20.541-4.5171-23.169-1.3228-260.25l4.1602 0.4602 1.8735 257.99-4.7109 1.8049zm31.794 5.492c-9.2856-20.94-6.6675-58.314-6.916-81.362-0.6333-61.174-0.7437-123.33 3.5542-184.38l3.8022 2.45c2.8668 134.13 5.8419 208.79-0.4404 263.3zm41.465-325.46c-1.7637 0.9919-3.0029 1.7361-5.042 2.0581-17.55 2.7642-289.93 0.8708-294.8-2.3533l-0.1655-8.5725c12.828-6.0582 45.131-1.8369 61.633-1.8628 264.42-0.3645 233.47-1.6724 239.92 1.8628l-1.5429 8.8677zm32.924-49.185 1.1846 5.2521-4.7114 6.765-3.0854 2.2404c-6.6953 4.1333-306.95 6.1533-325.63 1.5651-1.3779-6.663-1.0747-10.67 0.9922-17.145 24.989-2.8795 52.32-0.8707 77.502-0.9038 263.23-0.1219 247.8-0.6356 253.75 2.2265zm-54.111-117.56-0.1377 62.993-33.117-0.2921-0.3027-62.874 33.558 0.1736zm3.747 72.381 2.7549 3.1884c-77.089 0.9891-155.83-2.2871-232.59 2.4829-13.556 0.8405-64.057 3.844-72.406-3.4583 10.883-5.7703 71.938-1.5186 87.339-1.4716l214.9-0.7414zm-141.84-11.218c-50.458-0.0264-31.557-2e-3 -82.517-0.0992 18.85-11.128 30.836-17.523 41.575-35.459l5.5928 0.1764 35.349 35.382zm-209.53-249.35-0.1655 61.034-31.354 0.2479-0.0278-61.629 31.547 0.3472zm176.5 153.11-13.335 20.122-25.54 0.0496c-660.26-0.6482-619.79 0.3208-639.66-4.2655l-2.48-5.4396 1.7083-4.6021c15.133-9.8977-5.6711-6.7198 679.31-5.8639zm-558.77-97.099c17.963-0.0715 36.065-0.6365 53.973 0.598l-0.689 5.9716c-10.607 8.2914-60.503 3.1-75.904 2.9236l-6.5029-8.4791c8.5965-2.2375 20.168-0.9782 29.123-1.0141zm-48.876-16.131c11.406-2.8989 26.587-1.2125 38.572-1.2455 25.816-0.0746 52.596-1.4689 78.274 1.2455-11.978 5.53-105.55 4.4527-116.85 0zm203.77 17.145c8.0732-2.549 18.735-1.4329 27.194-1.5073 14.712-0.1322 33.613-2.4552 47.774 1.1575l-0.2754 8.3274c-0.7441 0.5374-2.1489 1.6754-3.1133 2.0696-6.585 2.7087-61.633 2.7914-67.364-0.3831-3.0575-1.6811-3.2782-6.3903-4.2152-9.6641zm178.26-2.8988 3.1685 5.3486-3.4438 0.3859-4.2153-5.2825 4.4906-0.452zm-5.6758-11.797c-5.9507 0.7329-6.75 0.2617-12.178-2.4497 5.5102-0.7358 7.1636 0.3801 12.178 2.4497zm-9.5322 21.056c3.2505 4.3536 0.9639 16.522 0.4678 21.81-6.2812 5.2936-26.339 2.6593-35.156 2.6619-12.48 0.124-25.154 0.722-37.581-0.7798-10.352-21.922 21.738-47.201 34.33-64.178 6.061 8.1097 12.205 17.013 19.452 24.095 5.4824 5.368 14.051 10.405 18.487 16.39zm-96.514-72.495c13.858-3.8826 45.185-2.0803 59.401 0l-5.4282 9.7991-3.8291 5.1503c-12.096 0.124-42.456 3.7808-51.163-2.7006l1.019-12.249zm-9.6152 47.724c6.2544-0.0083 18.514-1.6726 23.832-0.0193 1.4321 0.4465 3.9395 2.7887 5.2622 3.7339-7.917 3.4388-20.413 1.3743-32.125 1.3364-17.11-0.0552-60.834 4.4724-73.976-3.7861 19.911-4.6471 53.434-1.2367 77.007-1.2649zm-92.959-23.734c6.1714-2.1357 17.385-0.7109 24.053-0.7332 16.778-0.058 51.493-4.2933 65.848 4.183-29.386 3.5372-62.168-3.7827-90.507 2.1576l-2.5347-3.877 3.1412-1.7304zm19.314 47.881c3.416 7.2941 3.0024 15.197 3.2505 23.112-4.5459 4.2876-21.104 2.502-27.965 2.5791-12.288 0.0911-36.946 2.9347-47.609-2.0336 0.1377-5.8282 0-13.031 1.9009-18.556 3.7195-10.67 25.843-28.89 33.585-39.232 11.572 12.811 23.116 23.654 36.837 34.131zm-165.61-48.482 113.43 0.0359 2.2043 4.2545-2.5071 1.5928c-9.2795-2.4796-3.436-1.2349-117.73-1.1243-11.351 0.0715-25.623 2.6675-35.569-2.6675 8.5411-4.7339 30.086-2.0749 40.17-2.0914zm-25.816 41.824c2.9758 2.7695 9.6982 7.4761 11.71 10.719 1.4329 2.3423 1.1296 14.889 1.4053 18.372l-2.0664 2.2651c-33.128-0.4662-21.436 0.1687-51.411-2.538-5.4001-5.4452-11.682-10.378-13.445-18.099 4.2151-11.978 22.427-27.457 30.61-38.54 6.2541 11.37 13.776 19.025 23.198 27.821zm-140.65-41.747 108.86 0.1074-6.116 5.7949c-34.39-4.8485-72.74 4.2633-105.8-2.0612l3.0581-3.8411zm8.6513 30.469c12.398 0.0054 56.729-3.6815 64.718 3.3204-464.52 1.7887-338.47 1.4781-533.45 1.5293-20.416 0.047-54.58 4.8776-73.205-2.4469 6.8882-2.9741-45.085-1.9053 541.94-2.4028zm314.23-102.92c-14.63 5.2275-40.969 1.7305-57.142 1.8077l-141.53 0.7053c-161.78 0.5919-140.58 5.0598-153.66-12.312 23.309-5.0648 55.379-1.1079 79.487-1.1161 295.44-0.0201 265.9-1.2717 273.06 2.6619l-0.2207 8.2531zm-38.958-65.512 1.4878 6.7238-3.9397 3.6042c-87.398 0.1204-25.887 0.1487-298.69-0.2426l-2.9756-4.5853 2.9756-3.2434c321.97-2.1949 298.28-1.9391 301.14-2.2567zm1.6809 23.872c-13.33 6.1931-48.715 2.4863-73.232 2.5183-73.655-0.0396-222.81 0.0643-225.87-0.97-1.3223-0.4462-3.8298-3.0366-5.0417-3.9983 36.98-5.4989 182.45-1.3733 240.91-1.3088 12.701 0.0138 54.277-3.8082 63.231 3.7588zm-293.89-35.517 0.3857-82.056 5.4827-1.9401 3.2236 3.1635-0.4412 82.056-5.4827 1.5377-3.1681-2.7612zm23.446-84.506c4.4084-0.4989 4.2705-0.1599 7.9351 2.4497 0.428 78.534 1.6331 78.898-3.2239 85.73-3.7744-0.281-3.6917-0.8735-6.3367-3.6732-0.1653-25.365-4.8765-60.381 1.6255-84.506zm23.887 24.401c1.4875-7.1782 7.3286-10.785 13.004-14.602l5.0696-0.7633 2.7554 3.2101c0.2681 69.371 1.3127 67.99-2.425 74.492l-11.02 0.5098c-4.8215-0.6007-5.2075-0.226-8.6514-3.9681-0.0828-18.36-2.4798-40.94 1.2675-58.879zm70.642 62.605 0.4958-77.948 31.326-1.5983c5.5657 5.944 24.659 22.574 27.359 29.198 0.4644 1.1525-0.0532-3.3861-1.4324 50.243l-57.748 0.1047zm103.9-79.656 6.7224-1.0939 3.7192 3.5437c0.1106 24.55 2.5898 51.783-1.2949 75.955l-7.0806 0.54-2.4521-3.0146c-0.4134-24.715-3.003-51.475 0.386-75.931zm22.261 75.931 0.7439-75.931 6.9705-0.8102 2.6174 3.26c0.1104 24.888 2.0112 51.282-1.3501 75.931l-6.2266 0.6448-2.7551-3.0946zm21.38-0.3057 0.7993-75.625c6.502 7.2637 2.314 64.972 2.2864 78.38l-3.0857-2.7556zm-227.6-183.4-4.9595 0.1902c-5.345-9.1542-4.7666-28.636-5.7581-39.383 2.8931-0.9177 6.1714-1.2236 9.1743-1.7472l2.5349 2.9734-0.9916 37.967zm124.53-12.827c-9.0642-6.7788-14.244-6.2524-25.32-7.465-10.442-0.3527-25.926-2.8851-35.542 1.0417l-2.397 7.002-3.3062-1.4137-0.9092-8.3824c8.2651-11.587 24.934-14.999 37.938-18.432 10.379 1.2554 31.518 9.2502 35.321 20.879l-5.7858 6.7705zm72.846 10.378-2.011 5.9768c-6.2817-9.5977-3.8298-31.279-3.1409-42.72l7.0254-1.7307c4.8216 8.0408-0.0276 29.02-1.8735 38.474zm-21.215-75.81-6.2539 0.4381c-7.2075-4.7701-3.9829 1.3236-6.447-24.318-2.342-24.335-9.7261-44.486-15.842-67.843 10.829 6.6709 34.06 68.332 28.543 91.723zm-90.782-149.54c8.4861-0.5952 13.748-2.4469 21.077 2.0723l-6.3921 1.6121c-7.5769 0.1295-14.52-0.0605-22.014-1.2345l7.3287-2.4499zm17.826 94.694c-0.0828 9.4683-1.9011 10.146-8.0449 16.787l-10.387-7.735 0.0552-9.11 5.4277-3.056 4.0498-15.649c3.4441 2.8657 1.1572 8.4679 2.7551 12.248 0.744 1.7388 4.6837 4.9739 6.1441 6.5143zm16.779 32.464 0.9094 3.8855-8.2654 6.1257c-4.436 2.3092-9.2849 5.0978-14.354 5.5249-12.04 1.0142-17.881-2.9457-26.587-10.424l-0.1382-4.8994c13.363-3.3041 34.55-1.5322 48.436-0.2123zm-80.037-66.989c-18.727 61.821-15.768 86.418-17.054 88.022-0.937 1.1106-2.4795 1.4716-3.7195 2.2101l-5.1797-0.7137c-5.3552-26.832 14.694-81.472 25.954-89.519zm115.17 97.934c9.2849 0.0137 36.368-3.1388 44.028 0.0797 1.5703 0.6587 2.5068 2.3037 3.7468 3.4557l-151.86 0.1019c-19.947 0.0358-52.596 4.2712-70.918-2.527 21.662-4.9107 137.13-1.1754 175.01-1.1103zm64.911 24.555c-16.615 1.2742-15.82 4.0929-24.328 3.2269-30.362-3.0918-62.652-0.4023-93.207-0.4023-35.077 0.0028-71.863-4.5928-106.49 0.6503-5.2898-4.8113-23.061-4.2959-30.582-4.8746 21.33-4.7447 250.18-1.5262 254.6 1.3997zm-269.56 86.78c12.19-5.2197 294.78-2.5984 299.62 0l-0.6611 10.606c-7.5247 4.212-291.5 1.7871-299.27-0.8103l0.3032-9.796zm-2.2043 27.024c73.408-0.1101 13.77 0.0013 299.79-0.5869l2.0942 4.1803c-13.06 9.0521-42.953 4.8499-59.484 4.8939l-187.68-0.204c-12.04-0.0276-49.18 3.6293-57.334-3.4666l2.6173-4.8167zm29.728 167.7c93.812-0.0947 28.678-0.167 313.04 0.4739l2.4526 4.0922c-9.71 3.5103 14.055 3.0914-353.68 2.301l-1.8735-5.6353c12.784-2.3946 27.056-1.2097 40.06-1.2318zm-68.411 11.028c3.8296-0.6559 5.207 0.7356 8.5959 2.4497l0.9094 4.8995c19.688 16.769 23.226 38.816 15.759 51.439-4.2429 7.1372-9.3401 6.9304-16.586 8.1042l-25.099-0.1874c-5.7583-3.3535-6.4473-4.7037-7.9902-11.593-3.499-15.599 15.952-41.254 24.411-55.112zm-24.19 3.417 0.9917 3.2351c-14.768 3.0063-64.553 4.0203-76.373-2.9844l75.381-0.2507zm-76.704 42.318c-4.6008 7.7709-8.7888 10.488-16.531 14.643-10.635 0.2313-24.108 2.9706-32.842-3.0863-2.8652-25.958 9.0642-39.287 21.904-60.833 13.242 13.033 28.616 31.942 27.469 49.276zm-34.549-105.75 2.9204 3.6842c-6.9832 1.8364-432.08 1.6274-432.28 1.579-1.46-0.339-4.5732-3.0917-5.9785-4.0287 9.4524-1.8676-34.346-1.3047 435.34-1.2345zm-70.064-38.931-0.6611 6.4756c-23.226 3.4556-49.676 0.9011-73.342 0.9231-318.79 0.0883-294.91 1.7162-301.28-2.6562l0.8262-6.2168c5.45-1.2579-20.844-1.0815 301.03-1.0608 70.467 0.2448 67.806-0.3805 73.425 2.5351zm5.4551-282.06c1.4326 0.7633 2.4521 2.1466 3.6921 3.2184-1.5156 7.8453-11.103 15.211-16.779 20.808l-360.29 0.9121-2.8928-4.7396c10.387-6.0073 12.839-11.634 21.38-18.851 4.5691-2.1304-17.751-1.413 284.36-1.8188 9.6986-0.0054 65.16-2.3863 70.532 0.4713zm-291.03-112.33c247 1.965 214.17-1.0978 252.51 1.7305l-1.405 4.1666c-11.362 1.8549 4.437 1.2554-246.26 1.0857-18.46-0.0221-38.627 1.5348-56.839-1.0857l-0.5234-4.8967c15.704-3.4171 36.313-1.0004 52.513-1.0004zm-108.88-114.78c3.7192 1.8436 8.7612 7.6276 12.315 10.463 9.4773 7.5502 29.122 21.378 40.997 23.31 27.249 4.4393 62.625 0.5511 90.782 0.4574 236.04-0.1783 218.31-1.2507 223.17 1.9923l-2.8376 2.2927-207.79-0.0083c-30.996 0.0248-64.857 3.0256-95.466 0.0166-11.985-1.1794-25.458-7.0297-37.856-9.2175-158-22.466-98.712-14.97-258.79-33.194-15.318-1.8875-33.475-1.4411-47.94-6.3488-0.2478-9.6942-0.3577-13.467-3.4985-23.401 294.49 33.657 285.12 32.744 286.92 33.638zm-266.73-55.683 0.8267-63.685 5.8132-0.675c5.9785 8.7104 1.708 54.153 0.165 65.886l-3.0581 0.7771-3.7468-2.3037zm34.274 7.2721c3.1409-16.867 5.2349-43.687 17.551-56.258 3.8567-1.7388 7.1907-2.4772 11.406-1.488 7.0259 1.6396 14.024 8.6636 17.744 14.646 5.5103 8.8566 18.267 40.078 15.87 50.138l-9.2297 0.248c-17.303-4.0837-35.68-5.6049-53.34-7.2857zm106.57 12.326 0.1929-63.688 5.4556-1.9426 3.3337 3.1689-1.0195 64.046-3.6096 1.1767-4.3531-2.7612zm35.266 6.3847c6.0786-19.776 11.652-38.4 30.004-48.027 6.2817-1.342 9.45-0.011 15.263 2.4496 11.792 13.221 17.137 37.214 21.904 54.112-27.138-2.8426-11.148-0.8718-67.171-8.5341zm43.008-103.49c5.9236 2.4084 19.809 20.794 25.044 26.305l-295.08-39.422c3.5815-7.5504 2.9758-16.308 3.1411-24.495 10.409-3.0121 7.6252-2.0451 189.42 26.721 79.049 11 73.332 9.2061 77.475 10.89zm-32.428-35.162c5.0693 6.0239 8.6511 10.62 11.075 18.239-17.146 1.5936-3.3503 2.0873-201.43-29.072-12.674-2.0391-42.65-3.574-51.053-11.212l0.3306-17.148c13.005-4.0839 212.86 32.478 241.08 39.193zm-160.96-71.034c6.3645-0.7908 8.2651-1.6064 14.161 1.2234 1.1848 9.5731 0.5234 18.589-0.2478 28.168-5.5103 0.6862-9.4504 1.6285-14.465-1.2235-1.7634-9.2836-0.2756-18.837 0.551-28.168zm107.53 44.09 0.0825-24.495 1.7083-0.6035c5.5654-1.2621 8.238-1.3365 12.839 1.8269 1.1016 8.5975-0.1106 17.145-0.937 25.721-6.8052 0.6449-7.9903 1.7334-13.693-2.4496zm25.292-39.19c-15.429 6.9414-165.12-21.141-194.16-25.594-21.214-3.2543-45.24-3.6566-65.324-11.149 14.122-3.6465 6.5151-2.4902 259.48 36.743zm-34.247-51.717c0.7993 0.7578 0.7717 5.7869 1.5432 6.4014 3.9397 3.1028 4.408 1.0911 7.7969 6.1229-11.208 6.5239-7.4404 4.3776-16.669 9.5234l-164.01-27.049c-18.212-3.0891-49.841-3.811-64.498-13.114 0-7.3958 2.4243-9.8427 6.3091-15.9 18.625-7.754 89.322 10.97 112.27 14.624 14.68 2.3396 112.26 14.679 117.26 19.391zm-239.15-69.529 1.6531-3.1774 15.732-2.9484 4.7661 1.3393-0.0547 15.809-5.7585 2.4249-7.3286-4.5992-9.0096-8.8481zm60.779-23.271c8.5054-2.4034 15.476-0.226 21.022 4.8994 0.1379 15.536 1.7634 32.704-1.7908 47.879-7.4583 0.196-14.431-0.5668-19.231-6.2389-0.6057-15.498-1.7356-31.089 0-46.539zm102.91 19.595c6.8601 0.5538 10.497-0.4628 15.428 4.8996 0.1658 12.998 1.0747 26.415-1.1565 39.259-6.7781 0.3115-10.745 1.6865-16.421-2.5184-0.2205-12.745-2.5899-29.736 2.1491-41.64zm-145.55-272.38c30.665 45.412 44.138 102.43 53.092 155.74 2.2869 13.676 6.6675 29.422 3.9673 43.203-7.7969-1.1411-11.489 0.3552-13.528-8.6252-10.733-47.399-12.144-143.43-85.36-232.77 15.517 3.9157 33.012 29.391 41.829 42.447zm-40.768 197.28c169.91 35.654 222.22 45.566 253.22 57.592l-6.1165 1.4661c-30.61 0.7466-64.912-8.647-95.301-13.919l-160.48-27.107 8.6817-18.032zm4.7085 72.489c-3.4221 0.3637-4.2815-0.5043-7.3455-1.8656-2.6199-10.416-8.0396-24.219-4.8215-34.718l4.2263 0.7084c2.9456 9.1317 11.544 27.435 7.9407 35.875zm4.8987 15.158 0.6887 11.943-5.5874 2.8381-476.22 0.0801-1.675-4.0839 5.2676-11.08c7.1167-2.8767 20.644-1.4329 28.464-1.5404 471.86 0.2928 441-1.5022 449.06 1.8436zm-451.23-86.482c0.5837 3.888 0.7659 7.3793 0.7188 11.314l-16.36-19.557c467.57 0.4612 425.02-0.8184 432.11 1.3423l-3.3696 4.8993-6.5544 1.1627-406.55 0.838zm368.54 66.584c-6.3645 2.097-15.203 2.1658-21.724 0.6999-4.1465-0.932-0.5481-15.247-13.674-34.994l3.4856-1.6918c8.2375-0.113 12.924 0.4903 19.837 5.2411 8.8745 6.101 10.307 21.064 12.076 30.744zm-94.83-1.1077-1.2122 1.689c-58.67-0.052-29.069-0.13-134.19 0.4022 3.6782-4.8083 8.4805-12.83 13.602-15.905 6.6812-4.0068 6.6533-8.0822 11.073-13.778 5.9211-7.6304 17.705-11.797 26.292-15.39 7.7354-2.6198 17.55-0.0997 24.46 4.0481 7.0337 4.2214 12.461 7.6855 14.654 15.547 14.478 3.5466 19.24 18.452 33.396 20.552 4.2428 0.6285 7.8548 1.4715 11.924 2.8357zm-207.46-35.636c-8.1111 11.425-10.927 23.976-14.109 37.33-7.0898 1.5339-12.422 2.2544-17.495-1.813 2.6975-23.086 0.3477-25.938 14.85-35.517 6.2542-0.945 10.792-2.5985 16.754 0zm-71.69 36.743-3.3611-2.7556 1.0581-9.493 1.9312 1.2262 0.3718 11.022zm426.84-100.43c-9.6035 4.5132 20.672 3.806-387.88 3.7587-14.046-0.011-30.626 1.9484-44.223-1.3088l-4.2788-9.799c9.1609-2.8902 0.9602-1.5923 133.9-1.3835 315.07 0.9924 288.55-0.9229 301.59 5.2248l0.8899 3.5078zm-118.5-224.39c8.6816-12.105 23.962-13.75 37.66-16.308 10.71-0.6146 21.113-0.4988 31.767 0.6529 19.22 2.0807 34.462 6.2606 47.078 21.943-5.5325 3.8-25.422 1.2675-32.968 1.1324l-84.556-0.9506c1e-4 -2.6455-0.5729-4.2491 1.0194-6.4702zm-106.3 26.735 1.6448-15.442c3.9429 3.3094-0.1487 13.362 4.75 17.145 4.8325 3.7312 7.8853 1.2014 12.861 7.3493l-16.148 14.696c-6.7666-3.0338-8.6704-11.395-15.349-13.062l-0.8623-2.8466c5.1053-1.9673 8.7696-4.5273 13.103-7.8395zm19.358 96.262c-25.248 5.0069-41.991-2.6288-63.482-15.148l33.591-9.3359 21.551-0.2676c11.718 0.397 26.27 4.9189 34.403 13.472-4.8105 6.3158-18.438 8.851-26.064 11.279zm34.643 30.226c-12.61 10.028-34.291 12.709-49.838 15.153-22.805-1.0774-45.317-7.9941-66.678-15.693l58.79-14.668c18.272-2.232 41.335 7.3493 57.726 15.208zm-47.918-66.482c-9.4915 0.5926-22.727-10.714-30.706-15.889l23.532-8.1235c11.934-1.3043 18.887 6.2758 33.2 7.0628-6.6848 5.9688-17.526 12.39-26.025 16.95zm-61.079-92.773c7.2488-5.8419 16.399-19.882 24.392-23.092 2.7576-6.4922 3.4136-6.5418 9.676-9.956-2.6448 3.6126-5.3174 8.4762-9.676 9.956-13.674 31.697-47.054 48.473-72.081 69.193-41.336 34.225-57.784 102.64-64.948 153.8 14.294-0.1653 43.948 3.3399 54.464-4.9794 2.7581 2.7916 5.144 3.5851 9.1086 3.8578 18.922 1.3035 43.763 0.408 62.46-2.6453 2.3281-5.6793 14.104-8.9254 19.864-11.301 11.66-4.8028 37.393-3.362 49.769-0.4243 3.7 3.483 9.8855 10.981 14.28 13.07 4.1494 1.9704 21.11 0.0663 27.136 0.0853l108.11 0.5373c1.8572-4.0754-0.1375-11.408-0.7964-15.847-3.4438-23.214-9.2158-45.606-17.448-67.584-28.975-77.347-69.16-78.872-97.003-106.73-12.608-12.612-21.942-32.924-36.602-42.362 13.982 1.8243 24.761 20.474 35.175 30.303 23.819 22.477 50.573 19.426 82.787 61.83 30.232 39.791 42.986 96.424 44.859 145.47l-366.27 0.1901c7.9956-68.681 21.311-130.28 78.001-175.96 13.495-10.874 30.811-16.195 44.741-27.421zm-58.371 174.76c-4.3394-1.3778-6.5767-2.6535-10.078-5.5662l4.6479-4.8994c9.655-1.9606 20.706-5.3027 31.384 3.6731-4.8987 4.7202-11.288 4.6872-17.87 6.0045-2.7551 3.8633-3.3477 8.9972-4.334 13.58l-2.9863-1.2125c1.2894-5.6102 1.3556-6.2495-0.7631-11.579zm14.172-25.161 1.6531 3.5903-2.8459 2.9265-9.7478-1.6175 9.0757-7.3492-0.3611-12.249-8.7588-3.2904-0.9089-4.0561 5.8298-4.8996c11.53-1.802 18.65-0.1571 29.332 4.8996-19.959 8.5386-17.999 6.1092-23.268 22.045zm7.5879-37.928 1.0386-8.6112 3.1213 1.9121-2.0056 7.8841-2.1543-1.185zm3.4631-13.954c-4.5408 0.0743-8.3784-0.882-12.762-2.0062l0.5181-4.5411 9.7944-2.3424 5.9099-10.262c2.7827 2.2458 1.5703 5.7153 3.4385 8.0024 1.6311 2.0004 6.3477 4.5714 8.5659 6.1668l-0.6062 3.1058-14.859 1.8767zm8.5684-24.558c-6.5266-2.7003-8.9265-2.604-11.982-9.2889 9.3125-1.9566 14.982-1.6064 24.091 1.1216l0.0854 3.775c-3.7608 2.7668-7.742 3.4005-12.195 4.3923zm175.06 15.181c5.4194 0.4382 9.8801 0.5788 14.69 3.2654l-0.573 3.6208-9.2185 2.5157c-8.0947-0.4683-16.093 0.893-22.334-4.4806l10.594-4.5411c0.4824-5.8942 1.2288-11.218-0.5042-16.983l-14.69-4.9874v-2.8549c14.704-2.8507 17.029-4.8406 29.381 2.0034-3.6753 1.3943-6.7529 2.9677-10.142 4.9684 3.0794 18.624 2.6382 15.729 2.7964 17.473zm11.74 63.71 4.3562-0.9753 4.0112 2.5847-2.9673 3.2654c4.5298 7.3548 12.426 4.6817 18.206 12.271-3.7551 1.761-7.3977 2.9622-11.384 4.0949l-0.8184 13.05-5.0061-1.3392c-1.0103-15.883-0.7734-12.994-19.165-15.52l-2.4275-3.2324c5.8494-1.645 11.032-2.954 16.143-6.404l-0.9477-7.7957zm-3.4056-7.4263 0.2178-4.8223 4.8933 0.2399 1.2451 6.2829-6.3562-1.7005zm2.8353-9.2779c-8.5244-2.188-17.779-2.571-25.149-7.7903 8.7058-1.0002 12.62-1.7023 19.206-7.349 3.5625-0.1546 5.1218 0.5178 8.2656 2.2128 5.2952 2.8547 10.373 4.1444 12.136 10.036l-14.459 2.8907zm-11.145-34.735 5.3201 1.4689-0.446 8.3053c-3.6204-3.8495-3.7557-4.8306-4.8741-9.7742zm-427.13 126.15c17.673-170.48 80.253-194.1 95.092-206.85 5.4194-4.657 8.9927-10.752 15.379-14.39 11.558-6.5861 26.166-9.868 38.928-13.547 18.619-1.2452 36.574-2.6893 54.351 3.9598 8.8218 3.3014 22.038 7.4128 26.196 16.504l-3.6064 4.1194-17.933-3.1881c-41.462-7.3575-89.396-1.8268-124.35 22.979-48.463 34.396-53.924 108.72-63.592 163.01-4.3311 19.446-7.3232 48.46-16.39 65.82l-5.436 0.025c-3.0995-11.089 0.1764-26.983 1.3637-38.441zm-150.72 88.006c6.13-7.3325 26.89-11.196 36.329-13.932 66.614-19.314 141.36-29.86 210.16-38.556 9.7615 1.667 14.418 7.8286 21.669 14.26-27.646 7.1891-57.283 9.8347-85.526 14.089-189.5 27.047-176.91 25.984-182.63 24.139zm53.549 15.828 10.109-1.317c6.0806 7.5969 2.0911 36.815 1.7109 47.812l69.697-11.477-0.6172-45.104 6.4197-4.3455 10.932-1.2344c5.0088 9.3417 1.6089 37.228 1.4824 48.915 22.945-4.5136 49.888-11.488 73.182-11.518-6.262 3.8429-10.958 7.405-15.145 7.2968-17.666-0.4603-39.244 5.7151-56.99 8.639-128.29 19.934-94.09 14.284-145.76 23.657l-2.656-2.2708c11.183-8.6993 34.671-9.482 48.681-11.51-2.4632-13.117-4.681-34.745-1.0445-47.542zm-59.547 76.198 210.73-32.103 9.0037-0.2454c4.3479 5.704 6.304 10.954 8.4561 17.652-14.936 7.217-37.55 8.14-54.034 10.923-180.73 27.751-149.83 23.04-175.5 26.859l-3.6642-3.4916c1.0633-6.8805 1.7134-13.354 5.0114-19.595zm-46.631 49.334c9.7114-5.0847 5.3164-2.8872 127.07-21.75 170.23-25.961 145.33-22.384 158.15-23.585v3.326c-18.655 4.7672-39.109 5.5415-58.222 8.9999-48.582 8.7946-177.19 31.851-227.01 33.009zm153.01 28.956c-5.0803 0.5428-4.8792 0.631-9.0176-2.3561-0.8623-9.0356-2.562-18.215 0.6089-26.944 5.8301-1.083 6.3811-1.8023 11.762 1.2234 0.262 10.281 2.3308 19.262-3.353 28.077zm-44.071 4.9655c-2.3364 0.2811-3.1877-0.5208-5.2871-1.4742l-0.6724-27.892 6.2212-0.4078c0.9368 10.193 0.697 19.59-0.2617 29.774zm-78.348 12.91c-2.3088-1.521-3.2648-3.2902-4.8739-5.536-0.9421-8.4625-2.2482-16.219 0.4108-24.495l6.0529 1.3392c0.1845 9.7743 0.4932 19.091-1.5898 28.691zm-37.658 25.082c8.7972-8.3605 175.88-27.906 199.99-30.816 4.2622-1.2979 7.3618-0.6833 11.618 0.0497l-1.3223 8.7214c-0.6531 0.7936-2.9727 4.1912-3.6892 4.4833-4.3862 1.7719-12.489 1.9041-17.33 2.6344-130.26 18.571-163.5 25.649-189.56 27.876l-2.532-3.1497 2.8268-9.7989zm24.248 20.664c195.7-29.992 172.93-26.719 183.57-27.625 5.3091 7.8149 8.99 16.991 12.982 25.55-5.2783 3.2886-244.42 27.41-310.83 36.523 28.399-34.338 58.497-26.327 114.28-34.448zm142.89 96.84-4.6067 4.3291c-5.7869-8.2406-5.3047-24.152-10.172-58.438-0.3086-2.1797-2.6091-12.279-1.9756-13.866 0.6392-1.5954 1.978-2.8106 2.9673-4.2133l5.0115-0.2865c6.4502 5.875 7.7696 60.866 8.7754 72.475zm-32.8 6.823c-19.87 3.2115-6.8208 1.6603-59.104 6.5004 2.4985-57.332 6.2695-60.75 18.234-68.367 11.454-2.6553 28.871 2.0085 33.919 15.126 3.648 9.4792 11.018 38.072 6.9515 46.741zm-75.93-64.316-3.6726 41.987c-0.6282 10.303 0.1461 21.395-4.8324 30.706-6.629-8.6692-5.1108-59.623-3.9731-72.693l6.7339-2.4496c2.182 0.4767 3.777 1.4218 5.7442 2.4497zm-54.15 78.38c-2.16 0.4492-4.1217 0.1516-6.3093 0l-3.309-63.685 4.3752 0.4603 5.2431 63.224zm-23.904 2.4497c-11.716 1.9549-2.9069 1.019-44.556 4.1968 0.7202-44.101-1.3026-48.495 10.808-58.083 10.387-1.4067 21.212-0.9038 29.491 5.5222 2.9894 10.623 8.8276 38.738 4.2568 48.364zm-69.986-75.931c9.7025-2.3496 46.769-4.0142 53.839 0.8626-14.715 1.0746-41.719 6.5224-53.839-0.8626zm262.54 76.802c4.499 1.3529 6.2595 9.6887 7.9265 13.828l-2.4106 4.8967c-261.89 23.992-253.48 24.177-270.53 22.552l-13.613-16.837c294.71-26.486 275.87-25.27 278.63-24.44zm-290.75 79.962 5.1301 0.1958c5.8326 9.2147 7.9735 22.982 9.0204 33.734l-5.5597 1.9457c-6.1083-0.3334-9.7643 0.4353-14.691-3.6348 1.0332-11.237 2.9563-21.406 6.0999-32.241zm-96.667-205.75c2.8103 1.3971 2.7581 2.0695 4.3339 4.6459l-6.8052 2.637-2.2345-2.9925 4.7058-4.2904zm-8.1689 24.495c4.1437-1.0417 7.2351-1.3807 11.505-0.6835 4.6536 0.7578 4.5516 1.8903 7.1774 5.5828l-4.4166 4.8967-4.9536 4.2492-10.96-7.8728 1.6475-6.1724zm33.569 29.118-0.9396 2.6978-10.409 1.3557c-9.4777-0.2011-20.843 1.546-28.692-3.7807 24.5-3.3806 22.8-4.1957 40.04-0.2728zm-91.838-49.7 2.755 3.4115c-8.7972 1.9619-18.947 2.4249-26.796-2.425 7.1854-1.7856 16.553-0.9149 24.042-0.9865zm-22.485 25.481c7.2625-3.7779 19.545-1.7166 27.29 0l1.8458 4.8967-6.345 4.8555c-11.638 1.8077-17.52 1.5514-27.246-4.4503l4.4552-5.3019zm-16.324 22.219c11.202-1.8271 54.158-1.7167 61.151 3.8578-21.212 3.2213-46.923 5.1364-67.603-1.5845 2.2729-1.0884 3.9454-1.8627 6.4525-2.2733zm-46.328-54.062 3.9482 0.8101c1.8046 7.2693 0.6144 9.4574-1.7523 16.31-3.3116-2.1411-4.2319-3.957-6.0558-7.3217l3.8599-9.7989zm0.529 22.045 3.1051 0.6117c2.4824 5.0014 1.9313 6.7073 1.4877 12.15l-7.8218 3.0807-4.7607-2.5736-1.0775-5.9191 9.0672-7.3492zm-17.895 29.394c10.877-0.6722 13.431-1.6341 23.083 4.0617l-1.0718 1.9787c-9.0781 0.5952-16.553-0.7083-25.372-2.7446l3.3614-3.2958zm5.2154 11.141c8.9763 0.5593 16.972 4.8527 26.485 5.2521 19.49 0.8184 37.82-3.6098 56.908-4.103 15.253-0.3915 30.745 2.6702 46.03 3.0889 24.678 0.6779 48.684-0.6724 73.453 1.2235-12.688 5.0565-22.058 11.124-36.076 9.7108l-10.445-3.1523c-27.071-10.119-47.491 4.4574-72.653 4.6542-8.8138 0.069-17.793-3.687-26.353-5.5471-17.046-3.7041-37.643-2.673-53.478 5.955l-26.89-8.0767c3.6754-4.5303 17.03-7.1068 23.019-9.0054zm-16.818 32.607c19.341-2.6785 41.964 1.6892 61.908 1.7361 57.737 0.1404 117.49-4.2108 174.92 0.303l-1.3612 3.6456c-36.74 3.0026-52.652 0.1431-92.904 3.1663-12.456 0.9369-24.438 4.4006-36.966 4.916-12.31 0.5043-25.091-3.4995-37.503-4.2656-28.902-1.7802-58.379 1.4246-86.98-3.7945l-0.223-2.9154 19.104-2.7915zm216.48 22.386c-6.7563 10.788-5.37 9.7493-12.704 13.015l-5.0942-3.2186 0.6143-9.7962c6.1165-1.2041 11.376-3.0477 17.184 0zm-66.014 4.7727-26.003 13.525c-39.162 0.9139-31.925 3.4833-66.556-11.518 11.329-3.6043 22.499-5.4562 34.211-7.1921 19.435-4.1059 39.313 1.3061 58.349 5.1859zm-135.99-3.1248-0.6144 10.598-5.6783 2.8879c-3.9757-6.4647-10.153-10.551-16.068-15.134 7.7805-0.4491 15.757-2.67 22.361 1.648zm-45.826 25.294c13.191-3.6606 61.237-0.9912 87.482-0.9644 22.499 0.022 171.56-5.4424 180.85 2.2375l-2.6064 2.3754c-36.478 2.8244-74.555 0.6062-111.24 1.1545-150.23 1.7113-142.81 3.0362-155.03 0.0964l0.5426-4.8994zm-17.052 24.707c7.6566-7.385 177.44-4.9987 201.38-5.109 16.399-1.6008 105.89-4.0425 115.65 2.4471-11.979 6.3455-220.04 3.4728-317.04 2.6619zm309.72 100.24c239.73-19.96 228.05-19.903 236.21-17.17 2.5403 5.3707 5.3616 9.303 4.8438 15.36-24.177 4.5109-50.141 4.657-74.742 6.5446l-130.21 10.584c-8.8632 0.4794-26.27 5.0042-33.654 0.3995-2.3144-5.8667-4.031-9.46-2.4467-15.718zm-12.219-31.869 1.0607 0.4216 1.3638 4.4531-4.8958 3.6538-3.8518-3.6071 6.3231-4.9214zm-39.892 50.403c-77.302 0.0626-22.498 0.1412-267.41-0.5126l-2.8241-3.3508 1.6229-7.3491c24.574-4.1158 52.852-0.8105 77.891-0.8597l173.13-0.4161c10.944-0.0083 41.697-3.3453 50.108 2.6454v8.4541c-10.235 2.458-21.967 1.3722-32.522 1.3888zm9.8746 61.194c12.059-12.53 50.51-40.028 67.708-40.124l229.19-17.584c11.404 3.7118 5.3506 18.835 12.406 26.704 4.075 4.5468 9.6458 7.2225 15.726 7.6525 58.002 4.1058 119.14 0.2535 177.51 0.1542 605.04-0.7461 552.94-2.4011 604.77 0.9177l0.6062 4.5522c-7.5593 2.3317-6.3442 1.3077-82.599 1.3116-331.32-0.2827-120.51-4.9137-1036.7 28.725l11.34-12.309zm-336.05 53.134c-5.8134-4.8527-6.2681-10.752-7.5603-17.763 5.663-1.8656-21.258-1.6801 359.29-1.0168l12.09 17.79-363.82 0.9892zm30.188 224.73c12.756-4.4064 332.32-4.4751 355.95-0.5593l8.1002 15.255c-8.5548 1.9368 24.755 1.4615-362.41 0.8514l-3.0306-3.3011 1.3912-12.246zm26.102 131.04c-9.734 12.772-24.039 21.29-35.442 32.453l-4.604-4.6956-3.2208-5.7123c10.798-6.2884 31.522-21.684 43.267-22.045zm-117.23 45.947c1.6255-13.918 10.426-23.902 20.754-32.475 2.3529-0.5814 6.0695-2.1495 8.3538-1.4469 17.209 5.2877 31.792 31.309 24.777 50.169-3.4109 9.1705-10.844 12.621-19.168 16.228-9.646 0.3004-18.267 1.2814-26.924-3.7145-7.841-10.193-9.3509-15.415-7.7942-28.76zm-15.955-4.2933-2.9563 11.009c-10.401 1.8408-23.394 1.3035-34.002 1.0004-9.0645-0.259-11.147-0.7415-17.33-7.4293l3.7939-5.8169c7.7852-2.9043 44.003-3.2371 50.494 1.2371zm-83.478-29.73c2.9674 3.657 5.0227 6.8835 9.7919 8.1815l38.178-23.778 4.0721 0.2286 0.9836 2.2211c-13.175 10.397-26.466 22.213-40.784 30.907-8.8152-8.8958-5.5502-5.4484-14.269-14.988l2.0277-2.7722zm26.932 83.423 6.9816-13.29 55.982 0.0828 8.0424 9.1456c34.481 2.4443 70.149 5.6243 104.65 3.0176l3.9867-12.246c24.614-5.255 56.886-1.1022 82.341-0.8872l8.7338 8.9475c16.754 3.0531 102.62 9.7493 116.14 3.1357l1.16-8.7463c7.4747-6.4481 38.969-3.4719 50.251-3.5519 10.172 6.0238 26.482 13.701 30.593 25.597-10.219 6.244-84.925 2.3917-102.21 2.4248l-475.26 0.4106c-7.1304-0.9342-8.0312-2.3948-12.161-7.735 8.7909-10.084 25.08-6.9655 44.016-6.5693 25.328 0.5291 51.518 2.3092 76.764 0.2645zm-73.604-79.425 7.4968-1.8848c7.6262 2.943 11.302 5.806 15.646 12.907 7.1993 11.766 9.8745 26.848 6.3893 40.202-6.1578 6.6547-12.172 9.1842-20.391 12.549-8.3734 0.6718-20 1.3982-25.783-4.9875-5.5791-6.1589-7.1138-12.684-6.5049-20.819 1.1627-15.566 11.83-28.328 23.146-37.967zm-110.64-413.95 2.609 0.6118 1.8544 6.7346-5.1191-0.4629 0.6557-6.8835zm-114.12 1.1987-1.6751 6.1478-4.962-2.4496-0.4189-4.8969c3.5515-0.7137 3.8298-0.0937 7.056 1.1987zm-27.284 20.871c0.2269-9e-4 157.23-3.8046 165.4 1.105l-6.2515 2.6812-160.36-0.8184 1.2122-2.9678zm159.64 44.065-4.2321 3.472-8.2902-1.0223c0.719-3.1249 2.8268-10.89 1.9506-13.828-1.9479-6.5364-4.7637-5.2384-4.1272-13.117l12.985-1.0471 4.0168 3.4968-6.1659 13.472 3.8629 8.5727zm-71.494-9.6005c-4.6478 2.1797-9.6486 2.3146-14.69 2.7969-5.5378-3.7283-9.3097-4.7838-11.128-11.568l6.8107-8.5726c4.491-1.1904 9.4722-1.025 14.112-1.2593 5.4056 3.1497 10.133 5.3016 13.15 11.056l-8.2545 7.5476zm2.4244 14.497c-10.139 1.2841-19.179 1.0443-29.334 0 9.0222-4.4421 21.166-2.7792 29.334 0zm-92.835-29.391c7.0008-0.474 10.935-1.3336 17.437 1.6617l-2.9287 7.0459c-2.386 1.0638-4.8436 1.7168-7.3453 2.4553l-7.3453-5.4753 0.1819-5.6876zm1.1516 19.595 6.0944-2.1163 6.2817 3.3398 0.9562 6.1257c-6.2213 0.5402-10.651 1.9235-16.291-1.1876l2.9589-6.1616zm22.551 22.045c152.52-1.2606 153.56-1.9426 173.46 0l2.1298 4.8994-3.5983 3.6182c-72.673 0.0277-23.328 0.2798-229.79-1.2676l-1.5595-4.8003c10.136-6.2855 45.901-2.4029 59.354-2.4497zm155.83 41.64c4.8408-0.609 10.029-0.3748 14.919-0.4988 0.9695 6.9771-2.7588 7.2473 1.9231 24.993-5.1963 0.8735-11.045 0.3776-16.335 0.4052 3.7663-9.023 2.7902-16.315-0.507-24.9zm-208.1-17.145c10.238-4.9381 204.61-4.8334 219.34 0-8.5189 2.3201-18.322 1.2977-27.111 1.2924-127.49-0.2726-147.61 3.5233-192.23-1.2924zm133.67 29.083c-4.9867 8.1235-8.3123 11.681-17.14 15.42-8.7037 1.3558-17.622 2.1577-25.565-2.2981-7.8798-4.4172-12.134-9.1597-14.44-17.71 5.2101-10.956 9.7753-12.265 19.95-18.465 13.893-2.4573 26.835 0.2231 35.47 11.237 3.5652 4.5468 2.3281 6.2717 1.7247 11.816zm-116.49 10.108c-3.9949 3.8772-7.9293 3.0284-13.28 3.348l-3.6313-3.348c2.141-8.2864 2.0073-11.572-0.3636-19.595l1.9644-0.4023c5.0861-0.4822 14.299 1.0444 18.41 4.0756-3.6312 7.1479-4.1492 8.0434-3.0996 15.922zm8.1664 19.956c184.28-0.6658 194.02-3.6143 230.96 1.8462-14.375 6.0778-5.8651 4.3159-237.01 4.1996-14.498-0.0579-33.921 2.3588-47.223-3.6788 16.669-4.0481 36.145-2.2734 53.274-2.367zm-38.495 31.301 248.43-0.7743c6.5546 4.4282 13.746 7.8424 20.768 11.463-6.1515 2.673 4.0767 2.0466-215.71 2.549-40.265 0.0491-52.256 4.874-91.515-3.7668l38.027-9.4712zm-53.954 26.853c339.3-6.4521-46.46-2.894 308.7-3.4557 21.838 0.0414 43.253-1.1793 64.537 4.5055-38.506 7.4899-84.082 3.2131-123.49 3.2654l-179.96 0.0387c-15.756-0.0074-65.111 4.9426-69.78-4.3539zm65.286 41.913c0.8981-2.1439 4.48-5.4231 6.0696-7.3492 2.9976 0.8101 2.7993 0.9175 4.5157 3.3839 7.6456 10.992 5.7747 52.83 3.5734 66.319l-5.9926 1.9236c-4.1327-0.3253-4.8876-0.7358-8.3674-3.0424 0.0414-64.683-0.4149-59.763 0.2013-61.235zm69.56 76.664 183.45 0.6476 1.7108 4.6514-6.6068 2.8494c-300.36 2.1697-264.24 4.1506-276.67-3.8l4.108-2.6316c28.21-5.7814 64.782-1.6921 94.011-1.7168zm-35.31-84.013 3.8048 1.9344c7.2957 11.618 4.7169 53.564 2.6561 67.592l-5.6124 1.9482c-3.3392-0.0166-5.3643-1.3668-8.246-2.8907-0.2813-20.339-4.9485-51.852 7.3975-68.584zm40.95 72.249c2.2941-27.824 5.5774-51.451 31.208-64.9 9.1906-1.9554 16.784-0.1498 23.069 4.5631 17.082 12.808 18.614 40.7 20.804 60.213-40.173 0.0418-23.264 0.0149-75.081 0.1239zm122.04-69.799c2.3693 0.4796 2.8599 0.2426 4.7196 2.1135 8.6263 8.6802 5.2375 50.786 5.2183 64.021l-5.582 3.5962-8.5686-0.3639-2.8707-3.2323c-0.0222-18.228-4.0972-51.714 7.0834-66.134zm24.865-2.4497c4.4991-0.361 4.7664 0.5924 8.2572 3.2158 8.5686 12.913 3.8572 47.997 3.5513 64.065l-5.3834 3.7284c-4.8079 0.6227-6.3259-0.0911-10.566-2.425-0.5594-21.579-3.4137-48.226 4.1409-68.584zm-271.34 110.22c59.309-4.9404 88.12-1.4873 273.91-1.3033 17.195 0.0468 36.305-1.8684 52.825 3.2653l-2.0994 5.3875c-30.984 3.8109-317.72 4.0424-326.48-1.4469l1.8405-5.9026zm316.1 31.841-10.574 9.788-5.728 8.0409c-4.4379 4.6206 16.114 3.2343-317.88 3.2819-4.1497-9.931-7.4823-14.724-12.85-21.111 8.9095-2.2848 335.98-1.0086 347.04-1e-4zm-572.95 93.079c7.9735-0.124 15.812-0.755 23.311 2.4498-14.413 12.09-9.4138 8.2417-22.025 17.145l-3.3998-1.5983c-0.7881-7.8232-1.1159-10.546 2.1131-17.997zm26.449 64.291c-18.648 1.038-5.7013 0.7955-65.11 0.6642l28.323-16.933 30.78 0.8873c6.1688 3.7972 6.3038 4.2932 8.8992 11.102l-2.893 4.2793zm52.758-1.0305c-3.9067 7.1646-10.312 8.8593-17.553 11.116-9.6072 0.2921-17.514 0.7357-26.521-3.1771-4.6755-8.2668-5.1467-16.098-3.6424-25.368 2.3585-14.525 11.065-23.062 22.664-31.133 3.6616-0.7247 6.8879-2.1521 10.428-0.6448 12.749 5.4245 24.699 30.721 14.624 49.207zm20.81-42.574-3.4109-3.541 17.495-16.982-31.089-1.1327-0.168-3.9296c10.316-4.1663 108.64-4.2257 114.93 0-12.39 9.5963-63.859-0.7937-72.926 3.7257-7.935 3.9542-17.041 16.211-24.835 21.86zm107 45.448c-22.016 3.5437-48.725 0.7881-71.273 0.9369-6.7776-5.4313-11.682-13.505-16.76-20.532l82.646 1.0884c5.0474 7.6027 5.7748 8.9199 5.3863 18.507zm52.301-1.2235c-3.455 6.1449-8.5795 6.6713-14.726 8.6333-10.304-0.3665-20.865-0.3031-31.023-2.1714l-5.1163-27.683c6.8438-13.536 13.525-23.874 26.992-31.442l6.6921 0.543c8.4749 5.1254 14.506 10.212 18.424 19.559 3.8737 9.2396 3.7911 23.599-1.2426 32.56zm18.214-39.769-0.7604-3.9266 21.857-20.345c-13.145 0.2094-27.797 1.5844-40.76-0.4216-5.3147-0.8213-7.775-0.912-11.117-5.3488l8.3645-2.8713c132.94-0.5641 133.75-1.9344 141.3 2.8713-17.847 10.502-81.556-0.4589-90.512 3.902-8.8716 4.3181-20.832 18.945-28.37 26.14zm26.882 42.197-13.374-20.141 84.019-0.6586 2.7662 1.4854 3.6119 15.66c-7.7445 7.5997-62.895 3.6152-77.023 3.6537zm132.64-5.4369c-5.7666 8.3385-8.8358 9.3939-17.707 13.795-10.164-0.8434-22.085 0.609-28.893-8.3109-5.3671-7.0353-5.2404-18.344-3.5624-26.669 2.7386-13.58 11.555-21.094 22.523-28.468 3.0885-0.8597 5.728-0.8129 8.902-0.8569 16.743 13.285 23.14 21.052 18.738 50.51zm-10.169-63.183-2.9756-4.2988 8.3978-2.5902c16.779-0.0635 87.545-4.1143 97.723 2.0585-2.3171 4.1112-5.8052 4.4226-10.106 6.1366-5.8977-1.86 0.7433-0.8547-93.039-1.3061zm35.781 40.471c5.8105-2.4524 15.368-1.6616 21.757-1.984l2.0057 1.984c-6.8151 7.7885-3.9658 4.8445-12.288 12.838l-4.3475-0.5898-7.1275-12.249zm10.74 58.984 4.9207-2.6455c506.05-1.0867 370.7-0.8937 586.88-0.967 28.16 0 58.084-1.9897 86.024 0.967-2.9645 6.7267-3.4164 6.8092-1.1351 13.712l18.107 9.5427-680.47 1.2566-14.324-21.866zm-648.83 135.71c-11.156-0.0881-28.852 2.7114-37.806-3.632-0.9561-19.16 1.4245-29.427 10.059-46.54l4.6617 0.1268c11.202 5.299 25.006 36.707 31.456 48.862l-8.3701 1.1825zm23.375 14.533-1.3141-3.4691c17.873-4.142 43.556-1.3091 62.283-0.5292l1.35 4.0203-62.319-0.022zm-255.98 88.212c-2.325-6.1423-3.8665-8.5891-2.4484-15.189 19.599-1.1433 311.12-6.2963 323.74 1.0416 0.8403 5.7922 1.1323 8.5449-1.7689 13.731-13.116 1.0073 24.715 0.7371-319.52 0.416zm213.66 35.139-1.102 5.448-5.8465-0.1821-1.0193-4.7173 7.9678-0.5486zm-150.84 282.23-3.0526 3.3315-2.8984-2.1079c-5.5957-50.678-4.6976-101.21-4.7086-152.12-0.011-40.984-1.4078-82.764 3.8903-123.45 1.8791-0.0691 3.4522 1.4741 5.031 2.4497 9.53 38.336 5.9538 84.581 5.9648 123.95 0.0165 48.783 2.1959 99.514-4.2265 147.93zm26.174 2.447-4.1465-0.4575 0.2893-268.98 3.455 0.4575c7.1717 46.666 3.0664 98.408 3.105 145.81 0.0358 39.639 4.017 84.394-2.7028 123.16zm91.143 8.8015-68.518 0.0576 1.3638-297.05 68.22-0.4768-1.0663 297.47zm35.327-30.461-9.7946 1.0334c-0.9341-1.2896-2.1904-2.3975-2.8075-3.866-3.2126-7.6689 0.3113-223.54 2.3142-247.39 4.7665-1.6204 5.2073-1.9648 10.288-0.4878 5.1906 28.992 1.0469 66.08 1.08 95.865 0.0552 50.447 4.1962 104.83-1.0799 154.85zm25.37 30.254 0.0358-298.19 80.8-0.262 0.2122 298.48-81.048-0.0249zm114.19-1.8159c-6.7088 0.7219-9.6072 2.1411-15.531-1.8794l-0.0442-413.95c4.0336-1.6699 9.9517-1.0251 14.352-1.0554l2.6284 3.5051c0.5594 428.65 0.7695 400.82-1.405 413.38zm-121.2-459.26c-1.3775-0.3969-3.5872-2.2899-4.8793-3.1165-2.5705-7.0323-6.1247-13.657-3.6891-21.111 21.773-1.3927-56.29-0.8162 671.59-2.4111l12.72 22.298-1.1984 3.3398c-19.324 0.741-674.34 1.0601-674.54 1.0003zm163.11 259.79c-0.8015 197.35 0.7493 183.52-2.7387 199.62-6.436 0.5154-9.6292 1.8462-15.22-2.0364l-0.3774-277.99c-0.0275-44.305-4.1079-92.335 1.0994-135.96 6.1165-1.5459 9.7863-1.7966 15.867 0 2.7481 19.569 1.2927 6.4744 1.3692 216.36zm38.884 199.47-14.42 0.5205c-6.7005-9.2505-3.3171-375.66-2.0608-416.36 3.1575-1.3613 6.1054-1.3199 9.4695-1.4879 5.301-0.2675 5.4911-0.5347 9.6155 3.1908 0.0371 436.98 0.3761 404.54-2.6037 414.13zm25.741-0.0967 0.011-45.658c104.98-0.271 70.517-0.2051 152.92-0.3059l0.248 46.057c-99.466-0.2987-63.804-0.2664-153.18-0.0938zm-0.0468-76.416 4.7637-3.7502c21.206-0.0691 138.36-4.0012 148.28 2.1411l-1.2068 10.105c-15.092 3.884-145.65 3.1182-151.46-1.2234l-0.3719-7.2722zm148.14-24.296c-9.5355 2.4055-26.739 0.0054-36.933 0.0083l-109.53 0.0164 0.1846-318.29 151.39-0.1075 0.1047 314.42c-1.1322 0.8569-4.0417 3.6511-5.2237 3.9487zm64.248 100.95-0.2066-44.922 215.28 0.0442 0.2094 44.401-215.28 0.4768zm235.68 1.4439-4.557-3.4639 0.0605-60.298-233.07-0.4106-0.4465-328.11 216.36 0.3059 0.3278 299.1-188.42-0.0193c0.0096-193.66 4.2479-272.57-1.7854-287.78-6.2708-0.5015-8.7668-1.882-13.916 2.4497l-0.5372 301.43 220.66-0.1296 0.2231-330.9-250.47-0.0359c-0.372 45.638 4.7197 394.72-1.5098 406.06-5.7886 0.6946-6.6813 1.2483-11.982-1.6643l-0.3362-414.19 273.71 0.1129 0.011 415.28-4.3146 2.2652zm3.6726-503.12c-0.6943-7.2969-1.4712-12.789 1.9452-19.62 16.512-2.5022 35.9-0.6311 52.698-0.6201 222.78 0.1752 648.23-4.2965 657.85 1.8821 0.5023 7.3005 2.1266 11.905 4.896 18.358-18.633 3.9183-42.851 1.2565-62.228 1.2784-674.14 0.377-646.83 2.566-655.16-1.2784zm150.57 413.93c16.149 1.0671-1.6635 0.8062 101.36 0.5181 10.552-0.0054 27.216-2.1218 36.754 1.9316l0.6722 9.7991c-1.3721 1.2178-2.4302 2.9402-4.1218 3.6541-5.1025 2.1492-23.4 0.0549-29.607 0.0715l-117.01 0.281 0.675-386.3 150.29 0.7081 0.3831 312.93-141.62 0.5952c-0.1129 12.472-3.8296 46.369 2.229 55.812zm-80.316 88.179c-6.6013 0.4329-11.106 2.02-16.644-2.0583-0.7933-488.69-1.3254-445.56 1.1681-455.98 7.4775-0.6641 10.957-2.3726 17.063 2.4498 0.7535 488.52 1.6597 446.14-1.5869 455.59zm41.159 0c-6.662 0.2922-10.731 1.6453-16.366-2.4497-0.8302-487.03-1.4507-444.98 1.1957-455.59 4.7528-1.083 10.197-0.5594 15.076-0.5594l2.6394 4.2327c0.1622 487.05 0.995 447.42-2.5458 454.37zm178.53 0.3584-151.4 0.2122-0.0193-53.291 151.57-0.0964-0.1571 53.175zm19.377-1.5737-0.6118-456.07 41.716-0.1019 0.573 456.01-41.677 0.1569zm171.86-0.1623-41.677 0.0854-0.0854-455.85 41.9-0.0193-0.1378 455.79zm220.1 0.0246-199.79-0.0359-0.022-47.901 199.81-0.8955-0.0025 48.832zm-199.33-72.131 1.4407-12.246c13.382-4.7036 35.905-1.499 50.662-1.5293l143.74 0.2231 3.3447 3.7559-0.8955 11.276c-1.551 0.7825-2.0884 1.1655-4.017 1.4961-14.093 2.4194-186.18 1.8521-190.63 0.1516-1.4963-0.5703-2.4301-2.083-3.6451-3.1277zm199.52-71.852c-182.38 0.3154-138.86 0.2539-199.62 0.3005l0.8982-312.01c181.91-1.1724 142.46-1.0066 198.84-1.0139l-0.1158 312.72zm23.347 142.89c-5.6727 0.6118-5.7362 1.0278-10.687-2.4497-0.2969-383.61-0.2378-289.64-0.2892-426 0.0135-13.971-2.4467-33.784 2.1462-46.738 6.1852-0.6587 6.6288-1.4991 11.786 2.4496-1.1019 500.42-0.1867 459.2-2.9563 472.74zm45.705 0c-7.3151 0.4243-12.084 2.3369-17.947-2.4497-1.9941-536.44-2.3568-507.93 0.8871-519.28 5.2872-1.0499 11.012-0.5289 16.404-0.4822l2.667 4.1554c0.1089 544.46 0.8939 509.4-2.0112 518.05zm42.355-1.0525-2.4108 0.9285c-6.1274 1.4358-10.734 0.959-15.842-2.3257-0.6095-548.1-0.7975-505.38 1.0387-519.28 4.7856-0.8154 9.9073-0.8046 14.765-1.1104l3.5184 3.5603-1.0689 518.22zm24.714 2.243-0.2068-47.267 105.72-0.0413 0.0471 47.267-105.56 0.0413zm-125.1 332.57c-6.0585-0.1377-10.789 0.9424-15.58-3.0835l162.94-308.63c4.816-1.2896 9.8524 1.8269 14.236 3.7668l1.127 3.5823c-121.45 228.42-90.589 169.62-142.17 270.28-5.1494 10.248-11.186 27.727-20.548 34.087zm34.856 23.861-17.716-1.1765-2.0194-2.4966 158.06-297.61c4.8988-1.2676 10.326-1.6699 15.349-2.4248l3.2676 2.4248c-169.03 322.88-147 287.57-156.94 301.28zm21.121 8.4241 13.572-25.065c1034.5-0.5913 794.7-0.3743 1124-0.9507 7.5217 6.1091 10.993 17.118 14.795 25.826-1029.9 0.3772-790.5 0.366-1152.4 0.1902zm1186.3-20.014-10.718 10.212c-10.359-7.8562-85.602-184-95.934-206.44-51.001-108.24-52.485-109.03-56.949-125.31 3.4441-1.3916 7.2737-0.6062 10.883-0.3086 11.09 11.776 4.2805 3.876 120.57 233.5 12.701 25.305 30.031 54.236 37.388 81.555l-5.2352 6.7816z"/> <path d="m2428.1 231.47c1.8682 12.022 9.3674 19.03 18.967 25.885 21.328 15.233 67.374 15.771 92.923 10.68 9.9934-1.9909 18.388-7.4806 25.904-14.164l19.793-23.465c-136.19-0.9585-140.08-1.3715-157.59 1.0636z"/> <path d="m2076.3 530.89c5.9482-21.111 16.47-43.304 20.138-64.575l-7.7585 0.3004-58.839 13.009c33.188 38.486 22.777 27.089 46.46 51.265z"/> <path d="m2919.1 545.4 19.148-28.923 28.24-28.882c-11.497-11.243-16.3-15.743-30.086-20.942-7.5764-2.5795-21.738-2.3699-29.315-0.0333-1.405 12.039 4.188 25.776 6.6672 37.677 2.7828 13.434 3.8575 27.46 5.3453 41.103z"/> <polygon points="1113.7 2011 946.85 2010.7 946.8 2284.9 1113.9 2284.5"/> <polygon points="3892.4 2284.6 4047.2 2284.5 4048.1 2018.1 3892.2 2018.1"/> <path d="m551.2 2424.8-317.12 0.2205-0.645 35.889c-6.5933 5.1641-11.732 0.8789-16.193 8.1182l0.4583 26.465 331.36-0.8625c3.7194-4.792 2.6449-7.0325 2.4493-12.963-1.204-0.843-3.6147-3.0693-4.8959-3.436-2.5451-0.729-253.96 1.2329-307.28-0.7495l312.4-1.0581-0.5263-51.624z"/> <path d="m3581.4 2480.7 35.79 13.037c13.831 5.1169 36.286 1.6477 51.356 1.4685 213.4-0.2439 292.7 0.0942 774.14-0.3086 2.9751-13.359 3.8018-53.522-3.1133-64.597l-850.93-1.218 0.1101 48.047 224.02 0.4849-152.97 0.6807c-24.989 0.0989-54.222-3.1967-78.412 2.4056zm521.44-4.1887c337.7-0.6428 308.49-1.4897 326.93 1.064-12.481 5.23-359.99 5.4119-374.56 0 15.07-2.5767 32.346-1.0282 47.637-1.064z"/> <polygon points="1417.6 2432.2 568.34 2432.1 568.2 2491.2 1418.7 2491.6"/> <path d="m505.18 2565.8 0.3113-52.897-323.94-0.989c4.4022 19.118 9.3287 36.415 12.055 56.101 330.38-1.397 301.73-0.1965 311.58-2.2153z"/> <path d="m521.82 2571.7c419.99-0.0557 230.69 0.3108 846.26-1.8186l0.0057-55.842c-422.2 0.3347-235.8 0.2375-846.07 0.4163l-0.1982 57.245z"/> <path d="m4496.9 2575.2c0.5557-59.522 1.3032-57.771-0.8545-61.926l-860.46 0.6006-0.2207 54.429c37.464 10.074-3.9561 8.7866 861.54 6.8972z"/> <path d="m4514.2 2515.3 0.1934 52.968c6.8047 4.1719-19.745 2.8672 302.85 3.0396 0.8267-20.871 3.1133-37.771 12.343-56.928-28.15-0.0397 14.596-0.1371-315.38 0.9203z"/> <path d="m4855.9 2563.3 1.1851 2.7334c-6.9712 0.3694-13.886 1.0667-20.802-0.1458l-2.3135 2.3118c6.4468 3.9902 19.561 1.7417 27.413 1.5239l34.467-0.1323c-12.949-5.376-49.73-23.139-62.211-20.987-0.1377 6.1453-1.0469 9.1846 2.6445 14.495 7.8803-3.2434 11.379-1.455 19.617 0.2012z"/> <path d="m174.76 2570.7c1.2875-5.9216 1.7853-11.088 1.5949-17.145-7.4708-5.2632-21.619-3.2048-30.964-3.2793-3.8043 6.9607-8.4778 14.103-11.003 21.626l30.27-0.0496 10.102-1.152z"/> <path d="m109.17 2585.5 0.2361 52.095c-41.306 17.11-87.858 17.178-109.41 61.962 416.74 0.1584 320.23 0.1677 462.95 0.0359l-0.0827-113.53-353.69-0.5623z"/> <path d="m4904.1 2645.2 0.0825-58.684-351.56 0.0911 0.3857 112.94c479.88 0.2266 441.44 0.8611 446.94-1.532-12.282-33.642-26.095-33.272-95.852-52.814z"/> <polygon points="477.15 2715 1316.5 2713.9 1316.9 2591.4 476.82 2591.5"/> <polygon points="3691.8 2596.9 3691.6 2711.2 4537 2711.8 4536.9 2596.5"/> </svg>